<svg width="48" height="48" version="1.1" viewBox="0 0 12.7 12.7" xmlns="http://www.w3.org/2000/svg">
    <path d="m8.4365285 1.8506321 2.9706905 1.5979688c0.129884 0.069866 0.234447 0.2474623 0.234447 0.3981985v6.8565926c0 0.150736-0.104563 0.215841-0.234447 0.145976l-2.9706905-1.5979693c-0.1298836-0.0698659-0.2344469-0.2474626-0.2344469-0.3981988v-6.8565924c0-0.1507363 0.1045633-0.2158413 0.2344469-0.1459754zm-3.1947264-0.2392172 2.2163958 1.6410632c0.118954 0.088076 0.2147183 0.2803325 0.2147183 0.4310687v7.2919322c0 0.150736-0.095764 0.201181-0.2147183 0.113105l-2.2163958-1.6410631c-0.118954-0.0880758-0.2147184-0.2803326-0.2147184-0.4310688v-7.2919321c0-0.1507361 0.095764-0.201181 0.2147184-0.1131051zm-2.4167196-0.2309362 1.4935851 1.6675966c0.099304 0.1108734 0.1792488 0.321483 0.1792488 0.4722193v7.7272714c0 0.150736-0.079945 0.182828-0.1792488 0.07196l-1.4935851-1.6676022c-0.0993039-0.1108734-0.1792489-0.3214832-0.1792489-0.4722193v-7.7272711c0-0.1507362 0.079945-0.1828281 0.1792489-0.071955zm-1.648424-0.2288573 0.8216829 1.6899726c0.065552 0.1348228 0.1183253 0.3647129 0.1183253 0.5154491v8.1626099c0 0.150736-0.052773 0.163548-0.1183253 0.02873l-0.8216829-1.6899772c-0.0655522-0.1348229-0.1183253-0.3647132-0.1183253-0.5154495v-8.1626101c0-0.1507362 0.052773-0.1635473 0.1183253-0.028725z" stroke-opacity=".599653" stroke-width=".0536618"/>
</svg>
