<svg width="48" height="48" version="1.1" viewBox="0 0 12.7 12.7" xmlns="http://www.w3.org/2000/svg" xmlns:xlink="http://www.w3.org/1999/xlink">
    <style id="current-color-scheme" type="text/css">.ColorScheme-Text {
        color:#232629;
        }</style>
    <path class="ColorScheme-Text" d="m1.0929551 1.0589272c-0.02139 0.00519-0.03462 0.046072-0.03462 0.1214396v8.1628093c0 0.150736 0.05279 0.3803915 0.118339 0.515214l0.821655 1.6898189c0.06555 0.134828 0.118339 0.122314 0.118339-0.02842v-8.1628109c0-0.150736-0.05279-0.3803919-0.118339-0.515214l-0.821656-1.6898193c-0.03278-0.067411-0.06233-0.09821-0.08371-0.093018zm1.6432351 0.2642673c-0.05448-0.00441-0.090354 0.043692-0.090354 0.1377428v7.7141091c0 0.1504812 0.09144 0.3608382 0.2049345 0.4715239l1.7067953 1.6647787c0.1134901 0.11069 0.2049337 0.07826 0.2049337-0.07223v-7.7141042c0-0.1504812-0.091443-0.3608381-0.2049337-0.4715238l-1.7068011-1.6647784c-0.0425599-0.041507-0.0818856-0.062871-0.1145747-0.0655181zm5.8336386 0.529512c-0.062286 0.00611-0.1031627 0.05746-0.1031627 0.1457175v2.8694925c0 0.1412116 0.1047467 0.3212382 0.2345116 0.4037488l2.7059773 1.537537c0.129765 0.08251 0.234511 0.035191 0.234511-0.1060202v-2.8694926c0-0.1412115-0.104747-0.3212382-0.234511-0.4037488l-2.7059772-1.537537c-0.048662-0.030942-0.093977-0.043364-0.131349-0.039697zm0 3.9981474c-0.062286 0.00611-0.1031627 0.05746-0.1031627 0.1457175v2.8694924c0 0.1412115 0.1047467 0.3212382 0.2345116 0.4037488l2.7059773 1.5375364c0.129765 0.08252 0.234511 0.03519 0.234511-0.10602v-2.8694922c0-0.1412114-0.104747-0.3212381-0.234511-0.4037487l-2.7059772-1.537537c-0.048662-0.030942-0.093977-0.043364-0.131349-0.0396972zm-3.1921931-4.2626948c-0.051905 0.00647-0.085969 0.06084-0.085969 0.1542891v3.0382869c0 0.1495181 0.087289 0.3401346 0.1954263 0.4274988l2.2549808 1.6279807c0.1081379 0.087364 0.1954263 0.037261 0.1954263-0.1122568v-3.0382869c0-0.1495181-0.087289-0.3401346-0.1954263-0.4274988l-2.2549805-1.6279807c-0.0405518-0.032762-0.0783145-0.045915-0.1094576-0.0420323zm0 4.2333334c-0.051905 0.00647-0.085969 0.06084-0.085969 0.1542892v3.0382867c0 0.149518 0.087289 0.3401346 0.1954263 0.4274988l2.2549807 1.6279798c0.1081378 0.08737 0.1954263 0.03726 0.1954263-0.112256v-3.0382868c0-0.1495179-0.087289-0.3401345-0.1954263-0.4274987l-2.2549804-1.6279807c-0.0405518-0.032762-0.0783145-0.045915-0.1094576-0.0420323z" fill="currentColor"/>
</svg>
