<svg width="48" height="48" version="1.1" viewBox="0 0 12.7 12.7" xmlns="http://www.w3.org/2000/svg">
    <g fill="#fff">
        <path d="m5.6420329 1.5880168c-0.051905 0.00647-0.0857829 0.0610634-0.0857829 0.1545125v7.2713908c0 0.149518 0.0871996 0.3405166 0.1953369 0.4278808l2.2551595 1.6278081c0.1081378 0.08737 0.1953369 0.037378 0.1953369-0.112138v-7.2719078c0-0.1495181-0.0871996-0.3399999-0.1953369-0.4273641l-2.2551595-1.6278077c-0.0405518-0.032762-0.0784109-0.0462573-0.109554-0.0423746z"/>
        <path d="m8.8346029 1.8526001c-0.062286 0.00611-0.1033529 0.05747-0.1033529 0.1457275v6.8677979c0 0.1412115 0.1048461 0.3210823 0.234611 0.4035929l2.441195 1.5373736c0.129765 0.08252 0.234611 0.035274 0.234611-0.105936v-6.8672815c0-0.1412115-0.104847-0.3215991-0.234611-0.4041097l-2.441195-1.5373738c-0.048662-0.030942-0.0938861-0.0434577-0.1312581-0.0397909z"/>
        <path d="m3.0006972 1.3231945c-0.05448-0.00441-0.090354 0.043692-0.090354 0.1377428v7.7141091c0 0.1504812 0.09144 0.3608382 0.2049345 0.4715239l1.706945 1.6647787c0.1134901 0.11069 0.2049337 0.07826 0.2049337-0.07223v-7.7141042c0-0.1504812-0.091443-0.3608381-0.2049337-0.4715238l-1.7069508-1.6647784c-0.0425599-0.041507-0.0818856-0.062871-0.1145747-0.0655181z"/>
        <path d="m1.0929551 1.0589272c-0.02139 0.00519-0.03462 0.046072-0.03462 0.1214396v8.1628093c0 0.150736 0.05279 0.3803915 0.118339 0.515214l1.0861397 1.6898189c0.06555 0.134828 0.118339 0.122314 0.118339-0.02842v-8.1628109c0-0.150736-0.05279-0.3803919-0.118339-0.515214l-1.0861407-1.6898193c-0.03278-0.067411-0.06233-0.09821-0.08371-0.093018z"/>
    </g>
</svg>
