<svg width="48" height="48" version="1.1" viewBox="0 0 12.7 12.7" xmlns="http://www.w3.org/2000/svg">
    <style id="current-color-scheme" type="text/css">.ColorScheme-Text {
        color:#232629;
        }</style>
    <path class="ColorScheme-Text" d="m1.0929551 1.0589272c-0.02139 0.00519-0.03462 0.046072-0.03462 0.1214396v8.1628093c0 0.150736 0.05279 0.3803915 0.118339 0.515214l0.821655 1.6898189c0.06555 0.134828 0.118339 0.122314 0.118339-0.02842v-8.1628109c0-0.150736-0.05279-0.3803919-0.118339-0.515214l-0.821656-1.6898193c-0.03278-0.067411-0.06233-0.09821-0.08371-0.093018zm1.631941 0.2643448c-0.04767-0.00441-0.07906 0.043692-0.07906 0.1377428v7.7141091c0 0.1504812 0.08001 0.3608382 0.179318 0.4715239l1.4934484 1.6647782c0.099304 0.11069 0.1793173 0.07826 0.1793173-0.07223v-7.7141037c0-0.1504812-0.080013-0.3608381-0.1793173-0.4715238l-1.4934534-1.6647784c-0.03724-0.041507-0.07165-0.062871-0.100253-0.065518zm2.3967532 0.7941317c-0.057097 0.00647-0.094568 0.06084-0.094568 0.1542891v2.5091202c0 0.1495181 0.09602 0.3401346 0.214974 0.4274988l2.2158854 1.6279807c0.1189544 0.087364 0.214974 0.037261 0.214974-0.1122568v-2.5091202c0-0.1495181-0.09602-0.3401346-0.214974-0.4274988l-2.2158853-1.6279807c-0.044608-0.032762-0.086148-0.045915-0.1204061-0.0420323zm0 3.7041667c-0.057097 0.00647-0.094568 0.06084-0.094568 0.1542892v2.50912c0 0.149518 0.09602 0.3401346 0.214974 0.4274988l2.2158854 1.6279796c0.1189544 0.08737 0.214974 0.03726 0.214974-0.112256v-2.5091199c0-0.1495179-0.09602-0.3401345-0.214974-0.4274987l-2.2158853-1.6279807c-0.044608-0.032762-0.086148-0.045915-0.1204061-0.0420323zm3.223576-3.1754772c-0.084203-0.00411-0.1431439 0.061203-0.1431439 0.1744518v2.0359622c0 0.1509979 0.1047277 0.3286122 0.2346111 0.3985994l2.9703615 1.6006088c0.129884 0.069986 0.234611 0.00502 0.234611-0.1459804v-2.0359622c0-0.1509978-0.104727-0.3291297-0.234611-0.3991169l-2.9703615-1.600609c-0.032471-0.017496-0.0634-0.026585-0.091467-0.027954zm0 3.3026795c-0.084203-0.00411-0.1431439 0.061204-0.1431439 0.1744519v2.0359622c0 0.1509976 0.1047272 0.3286081 0.2346111 0.3985993l2.9703615 1.6006089c0.129884 0.06999 0.234611 5e-3 0.234611-0.145981v-2.0359616c0-0.1509975-0.104727-0.3291258-0.234611-0.399117l-2.9703616-1.6006089c-0.032471-0.017496-0.0634-0.026585-0.091467-0.027954z" fill="currentColor"/>
</svg>
