<svg width="48" height="48" version="1.1" viewBox="0 0 12.7 12.7" xmlns="http://www.w3.org/2000/svg">
    <style id="current-color-scheme" type="text/css">
        .ColorScheme-Text {
            color:#232629;
        }
    </style>
    <g fill="none">
        <path class="ColorScheme-Text" transform="matrix(1.2499997,0,0,1.2499997,-1.5874976,-1.5874982)" d="m3.5983323 2.1166657a2.1166618 2.1166618 0 0 1 2.1166672 2.1166672v4.2333344a2.1166646 2.1166646 0 0 1-2.1166672 2.1166667h5.5033346a2.1166616 2.1166616 0 0 1-2.1166671-2.1166667v-4.2333344a2.1166617 2.1166617 0 0 1 2.1166671-2.1166672h-5.5033346z" style="fill:currentColor"/>
        <path class="ColorScheme-Text" transform="matrix(-1.2499997,0,0,-1.2499997,-1.5874976,-1.5874982)" d="m-8.4666672-4.2333333a2.1166666 2.1166666 0 0 1-1.8330868-1.0583333 2.1166666 2.1166666 0 0 1 0-2.1166666 2.1166666 2.1166666 0 0 1 1.8330868-1.0583333v2.1166666z" style="fill:currentColor"/>
        <path class="ColorScheme-Text" transform="matrix(1.2499997,0,0,1.2499997,-1.5874976,-1.5874982)" d="m4.2333322 8.4666672a2.1166658 2.1166658 0 0 1-1.8330864-1.0583329 2.1166658 2.1166658 0 0 1 0-2.1166659 2.1166658 2.1166658 0 0 1 1.8330864-1.0583329v2.1166658z" style="fill:currentColor"/>
        <path class="ColorScheme-Text" transform="matrix(1.2499997,0,0,1.2499997,-1.5874976,-1.5874982)" d="m6.3499985 8.4666638a2.1166658 2.1166658 0 0 1-1.8330864-1.0583329 2.1166658 2.1166658 0 0 1 0-2.1166658 2.1166658 2.1166658 0 0 1 1.8330864-1.0583329v2.1166658z" style="fill:currentColor"/>
        <path class="ColorScheme-Text" transform="matrix(-1.2499997,0,0,-1.2499997,-1.5874976,-1.5874982)" d="m-6.3499999-4.2333338a2.1166666 2.1166666 0 0 1-1.833087-1.0583333 2.1166666 2.1166666 0 0 1 0-2.1166666 2.1166666 2.1166666 0 0 1 1.833087-1.0583332v2.1166665z" style="fill:currentColor"/>
    </g>
</svg>
