<svg width="48" height="48" version="1.1" viewBox="0 0 12.7 12.7" xmlns="http://www.w3.org/2000/svg">
    <g fill="#fff">
        <path transform="matrix(1.2499997,0,0,1.2499997,-1.5874976,-1.5874982)" d="m3.5983323 2.1166657a2.1166618 2.1166618 0 0 1 2.1166672 2.1166672v4.2333344a2.1166646 2.1166646 0 0 1-2.1166672 2.1166667h2.1166672 1.2700003 2.1166671a2.1166616 2.1166616 0 0 1-2.1166671-2.1166667v-4.2333344a2.1166617 2.1166617 0 0 1 2.1166671-2.1166672h-2.1166671-1.2700003-2.1166672z" style="paint-order:stroke fill markers"/>
        <path transform="matrix(-1.2499997,0,0,-1.2499997,-1.5874976,-1.5874982)" d="m-8.4666672-4.2333333a2.1166666 2.1166666 0 0 1-1.8330868-1.0583333 2.1166666 2.1166666 0 0 1 0-2.1166666 2.1166666 2.1166666 0 0 1 1.8330868-1.0583333v2.1166666z" style="paint-order:stroke fill markers"/>
        <path transform="matrix(1.2499997,0,0,1.2499997,-1.5874976,-1.5874982)" d="m4.2333322 8.4666672a2.1166658 2.1166658 0 0 1-1.8330864-1.0583329 2.1166658 2.1166658 0 0 1 0-2.1166659 2.1166658 2.1166658 0 0 1 1.8330864-1.0583329v2.1166658z" style="paint-order:stroke fill markers"/>
        <path transform="matrix(1.2499997,0,0,1.2499997,-1.5874976,-1.5874982)" d="m6.3499985 8.4666638a2.1166658 2.1166658 0 0 1-1.8330864-1.0583329 2.1166658 2.1166658 0 0 1 0-2.1166658 2.1166658 2.1166658 0 0 1 1.8330864-1.0583329v2.1166658z" style="paint-order:stroke fill markers"/>
        <path transform="matrix(-1.2499997,0,0,-1.2499997,-1.5874976,-1.5874982)" d="m-6.3499999-4.2333338a2.1166666 2.1166666 0 0 1-1.833087-1.0583333 2.1166666 2.1166666 0 0 1 0-2.1166666 2.1166666 2.1166666 0 0 1 1.833087-1.0583332v2.1166665z" style="paint-order:stroke fill markers"/>
    </g>
</svg>
