<svg width="48" height="48" version="1.1" viewBox="0 0 12.7 12.7" xmlns="http://www.w3.org/2000/svg" xmlns:xlink="http://www.w3.org/1999/xlink">
    <defs>
        <linearGradient id="linearGradient11" x1="1.0583333" x2="12.940529" y1="6.9556632" y2="6.9556632" gradientTransform="matrix(.89068829 0 0 .89068829 .13055914 .11944519)" gradientUnits="userSpaceOnUse">
            <stop stop-color="#0a66c2" offset=".24659947"/>
            <stop stop-color="#0a85c2" offset="1"/>
        </linearGradient>
    </defs>
    <path transform="matrix(.88609825 .46349745 0 1 0 0)" d="m9.5209854-2.4129484h3.3525526c0.146579 0 0.264583 0.1180042 0.264583 0.2645834v6.6674995c0 0.1465792-0.118004 0.2645834-0.264583 0.2645834h-3.3525526c-0.1465792 0-0.2645834-0.1180042-0.2645834-0.2645834v-6.6674995c0-0.1465792 0.1180042-0.2645834 0.2645834-0.2645834zm-3.6053862 1.4384673 2.501298 0.43646028c0.1342447 0.0234248 0.2423189 0.16028729 0.2423189 0.30686639v7.0908332c0 0.1465792-0.1080742 0.2457251-0.2423189 0.2223003l-2.501298-0.4364603c-0.1342447-0.0234248-0.242319-0.1602873-0.242319-0.3068665v-7.0908332c0-0.1465791 0.1080743-0.24572503 0.242319-0.22230021zm-2.7273721 1.0395627 1.6855751 0.84034741c0.1120687 0.0558721 0.20229 0.21885616 0.20229 0.36543536v7.5141664c0 0.1465791-0.090221 0.2196033-0.20229 0.1637312l-1.6855751-0.8403474c-0.1120687-0.0558721-0.20229-0.2188563-0.20229-0.3654354v-7.5141664c0-0.1465792 0.090221-0.21960324 0.20229-0.16373115zm-1.8603173 0.63970645 0.9273044 1.2135629c0.073978 0.096816 0.1335352 0.2927615 0.1335352 0.4393407v7.9374993c0 0.146579-0.059557 0.186642-0.1335352 0.08983l-0.9273044-1.2135667c-0.0739785-0.0968156-0.1335352-0.2927616-0.1335352-0.4393408v-7.9374995c0-0.14657918 0.059557-0.18664151 0.1335352-0.0898259z" fill="url(#linearGradient11)" stroke-opacity=".599653" stroke-width=".0562149"/>
</svg>
