<?xml version="1.0" encoding="UTF-8" standalone="no"?>
<svg
   width="48"
   height="48"
   version="1.1"
   viewBox="0 0 12.7 12.7"
   id="svg9"
   sodipodi:docname="icon-darkbackground.svg"
   inkscape:version="1.3.2 (091e20ef0f, 2023-11-25)"
   xmlns:inkscape="http://www.inkscape.org/namespaces/inkscape"
   xmlns:sodipodi="http://sodipodi.sourceforge.net/DTD/sodipodi-0.dtd"
   xmlns="http://www.w3.org/2000/svg"
   xmlns:svg="http://www.w3.org/2000/svg">
  <defs
     id="defs9" />
  <sodipodi:namedview
     id="namedview9"
     pagecolor="#ffffff"
     bordercolor="#000000"
     borderopacity="0.25"
     inkscape:showpageshadow="2"
     inkscape:pageopacity="0.0"
     inkscape:pagecheckerboard="0"
     inkscape:deskcolor="#d1d1d1"
     inkscape:zoom="24.3125"
     inkscape:cx="24"
     inkscape:cy="24"
     inkscape:window-width="2560"
     inkscape:window-height="1364"
     inkscape:window-x="0"
     inkscape:window-y="0"
     inkscape:window-maximized="1"
     inkscape:current-layer="svg9" />
  <g
     fill="#fff"
     id="g9"
     style="fill:#000000;stroke:none">
    <g
       id="g3"
       style="fill:#000000;stroke:none">
      <path
         d="m6.35 3.7041666a2.6458316 2.6458316 0 0 0-2.291333 1.3229167 2.6458316 2.6458316 0 0 0 0 2.6458334 2.6458316 2.6458316 0 0 0 2.291333 1.3229167 2.6458326 2.6458326 0 0 0 2.2913331-1.3229167 2.6458326 2.6458326 0 0 0 0-2.6458334 2.6458326 2.6458326 0 0 0-2.2913331-1.3229167z"
         id="path1"
         style="fill:#000000;stroke:none" />
      <path
         d="m8.9958339 3.7041674a2.6458326 2.6458326 0 0 1 2.2913581 1.3229163 2.6458326 2.6458326 0 0 1 0 2.6458326 2.6458326 2.6458326 0 0 1-2.2913581 1.3229163v-2.6458326z"
         id="path2"
         style="fill:#000000;stroke:none" />
      <path
         d="m3.7041664 8.9958317a2.6458316 2.6458316 0 0 1-2.2913575-1.3229158 2.6458316 2.6458316 0 0 1 0-2.6458318 2.6458316 2.6458316 0 0 1 2.2913575-1.3229158v2.6458316z"
         id="path3"
         style="fill:#000000;stroke:none" />
    </g>
    <g
       id="g7"
       style="fill:#000000;stroke:none">
      <path
         d="m1.0475359 3.70417a2.6566303 2.6567354 0 0 1 2.6566303-2.6567354v2.6567354z"
         id="path4"
         style="fill:#000000;stroke:none" />
      <path
         transform="rotate(-90)"
         d="m-11.652464 3.7041664a2.6566303 2.6567354 0 0 1 2.6566306-2.6567354v2.6567354z"
         id="path5"
         style="fill:#000000;stroke:none" />
      <path
         transform="scale(-1)"
         d="m-11.652464-8.9958324a2.6566303 2.6567354 0 0 1 2.6566306-2.6567356v2.6567356z"
         id="path6"
         style="fill:#000000;stroke:none" />
      <path
         transform="rotate(90)"
         d="m1.0475368-8.9958334a2.6566303 2.6567354 0 0 1 2.6566303-2.6567356v2.6567356z"
         id="path7"
         style="fill:#000000;stroke:none" />
    </g>
    <path
       d="m6.3391479 8.9958333a2.6566303 2.6567354 0 0 1-2.6566853 2.6566857h5.3133707a2.6567354 2.6566303 0 0 1-2.6566854-2.6566857z"
       id="path8"
       style="fill:#000000;stroke:none" />
    <path
       d="m6.3500001 3.7041666a2.6566303 2.6567354 0 0 1 2.6566853-2.6566857h-5.3133707a2.6567354 2.6566303 0 0 1 2.6566854 2.6566857z"
       id="path9"
       style="fill:#000000;stroke:none" />
  </g>
</svg>
