<svg width="48" height="48" version="1.1" viewBox="0 0 12.7 12.7" xmlns="http://www.w3.org/2000/svg">
    <style id="current-color-scheme" type="text/css">.ColorScheme-Text {
        color:#232629;
        }</style>
    <path class="ColorScheme-Text" d="m8.4365285 1.850632 2.9706905 1.5979687c0.129884 0.069866 0.234447 0.2474622 0.234447 0.3981985v6.8565928c0 0.150735-0.104563 0.215841-0.234447 0.145975l-2.9706905-1.5979689c-0.1298836-0.0698658-0.2344469-0.2474625-0.2344469-0.3981987v-6.856592c0-0.1507363 0.1045633-0.2158412 0.2344469-0.1459754zm-3.1947264-0.2392171 2.2163958 1.641063c0.118954 0.088076 0.2147183 0.2803325 0.2147183 0.4310686v7.2919315c0 0.150736-0.095764 0.201181-0.2147183 0.113104l-2.2163958-1.6410615c-0.118954-0.0880759-0.2147184-0.2803327-0.2147184-0.431069v-7.2919315c0-0.1507362 0.095764-0.2011811 0.2147184-0.1131051zm-2.4167196-0.2309362 1.4935851 1.6675965c0.099304 0.1108733 0.1792488 0.3214829 0.1792488 0.4722192v7.7272716c0 0.150735-0.079945 0.182827-0.1792488 0.07194l-1.4935851-1.6675827c-0.0993039-0.1108734-0.1792489-0.3214832-0.1792489-0.4722194v-7.7272705c0-0.1507363 0.079945-0.1828283 0.1792489-0.071955zm-1.648424-0.2288574 0.8216829 1.6899726c0.065552 0.1348228 0.1183253 0.3647128 0.1183253 0.5154491v8.16261c0 0.150735-0.052773 0.163548-0.1183253 0.02873l-0.8216829-1.6899781c-0.0655522-0.1348226-0.1183253-0.3647129-0.1183253-0.5154491v-8.1626096c0-0.1507362 0.052773-0.1635474 0.1183253-0.028725z" fill="currentColor" stroke-opacity=".599653" stroke-width=".0536617"/>
</svg>
