<svg width="48" height="48" version="1.1" viewBox="0 0 12.7 12.7" xmlns="http://www.w3.org/2000/svg">
    <style id="current-color-scheme" type="text/css">.ColorScheme-Text {
        color:#232629;
        }</style>
    <g fill="currentColor">
        <path class="ColorScheme-Text" d="m6.35 3.7041666a2.6458316 2.6458316 0 0 0-2.291333 1.3229167 2.6458316 2.6458316 0 0 0 0 2.6458334 2.6458316 2.6458316 0 0 0 2.291333 1.3229167 2.6458326 2.6458326 0 0 0 2.2913331-1.3229167 2.6458326 2.6458326 0 0 0 0-2.6458334 2.6458326 2.6458326 0 0 0-2.2913331-1.3229167z"/>
        <path class="ColorScheme-Text" d="m8.9958339 3.7041674a2.6458326 2.6458326 0 0 1 2.2913581 1.3229163 2.6458326 2.6458326 0 0 1 0 2.6458326 2.6458326 2.6458326 0 0 1-2.2913581 1.3229163v-2.6458326z"/>
        <path class="ColorScheme-Text" d="m3.7041664 8.9958317a2.6458316 2.6458316 0 0 1-2.2913575-1.3229158 2.6458316 2.6458316 0 0 1 0-2.6458318 2.6458316 2.6458316 0 0 1 2.2913575-1.3229158v2.6458316z"/>
        <path class="ColorScheme-Text" d="m1.0475359 3.70417a2.6566303 2.6567354 0 0 1 2.6566303-2.6567354v2.6567354z"/>
        <path class="ColorScheme-Text" transform="rotate(-90)" d="m-11.652464 3.7041664a2.6566303 2.6567354 0 0 1 2.6566306-2.6567354v2.6567354z"/>
        <path class="ColorScheme-Text" transform="scale(-1)" d="m-11.652464-8.9958324a2.6566303 2.6567354 0 0 1 2.6566306-2.6567356v2.6567356z"/>
        <path class="ColorScheme-Text" transform="rotate(90)" d="m1.0475368-8.9958334a2.6566303 2.6567354 0 0 1 2.6566303-2.6567356v2.6567356z"/>
        <path class="ColorScheme-Text" d="m6.3391479 8.9958333a2.6566303 2.6567354 0 0 1-2.6566853 2.6566857h5.3133707a2.6567354 2.6566303 0 0 1-2.6566854-2.6566857z"/>
        <path class="ColorScheme-Text" d="m6.3500001 3.7041666a2.6566303 2.6567354 0 0 1 2.6566853-2.6566857h-5.3133707a2.6567354 2.6566303 0 0 1 2.6566854 2.6566857z"/>
    </g>
</svg>
