<svg width="48" height="48" version="1.1" viewBox="0 0 12.7 12.7" xmlns="http://www.w3.org/2000/svg" xmlns:xlink="http://www.w3.org/1999/xlink">
    <defs>
        <linearGradient id="linearGradient2" x1="1.0583333" x2="11.641666" y1="1.0583333" y2="11.641666" gradientTransform="matrix(1 0 0 .97500005 0 .02645828)" gradientUnits="userSpaceOnUse">
            <stop stop-color="#48b3ea" offset="0"/>
            <stop stop-color="#147fb8" offset=".7473498"/>
        </linearGradient>
        <linearGradient id="linearGradient4" x1="1.0583333" x2="11.641666" y1="1.0583333" y2="11.641666" gradientUnits="userSpaceOnUse">
            <stop stop-color="#48b3ea" offset="0"/>
            <stop stop-color="#1585c1" offset="1"/>
        </linearGradient>
        <linearGradient id="linearGradient15" x1="6.3282957" x2="6.3499999" y1="10.26604" y2="3.4395831" gradientTransform="matrix(1.0681818 0 0 1.0474316 -.43295444 -.60620275)" gradientUnits="userSpaceOnUse">
            <stop stop-color="#f2f2f2" offset="0"/>
            <stop stop-color="#fff" offset=".7473498"/>
        </linearGradient>
    </defs>
    <g stroke-width=".793999">
        <ellipse cx="6.3499994" cy="6.3499999" rx="5.291666" ry="5.2916665" fill="url(#linearGradient4)"/>
        <ellipse cx="6.3499999" cy="6.3499999" rx="5.291666" ry="5.2916665" fill-opacity=".44693878" style="mix-blend-mode:darken"/>
    </g>
    <ellipse cx="6.3499994" cy="6.2177081" rx="5.291666" ry="5.1593747" fill="url(#linearGradient2)" stroke-width=".784011"/>
    <path d="m7.3458047 3.0030208c-0.5088328 0-0.8904276 0.1378334-1.1448442 0.4140755-0.2513141 0.2762424-0.3770148 0.6494605-0.3770148 1.1193573v2.6186896c-0.5243461-0.0484137-0.9167899-0.2207402-1.1774122-0.5169177-0.2606213-0.2961774-0.3908148-0.7018651-0.3908148-1.2173282 0-0.4271788 0.083616-0.780727 0.2511593-1.059817 0.1706454-0.2819385 0.4003484-0.4641001 0.6888936-0.5466879l-0.298079-0.764822c-0.3505988 0.0911321-0.6498895 0.2595526-0.898101 0.5044686-0.2451088 0.2420679-0.4327277 0.5325577-0.5630382 0.8714532-0.1303113 0.3360472-0.1954075 0.6920185-0.1954075 1.0679361 0 0.4698967 0.1021369 0.883938 0.306911 1.2427679 0.207877 0.3559824 0.5045416 0.6410842 0.8892691 0.8546736 0.3847277 0.2135898 0.8467604 0.3371405 1.3866197 0.3713149v1.6920265a0.50262898 0.49288091 0 0 0 0.5028704 0.4925598 0.50262898 0.49288091 0 0 0 0.5023183-0.4925598v-5.1220879c0-0.2164377 0.045262-0.3917291 0.1352397-0.525578 0.09308-0.1338493 0.2468362-0.2008133 0.4609186-0.2008133 0.3257771 0 0.5766274 0.1452451 0.7534776 0.4357266 0.1768508 0.287634 0.2655111 0.6608521 0.2655111 1.1193573 0 0.9850429-0.445195 1.5661852-1.3325237 1.746154v0.8211146c0.6911192-0.0947729 1.2406639-0.3379417 1.6488188-0.7301804 0.4653962-0.4442659 0.6982777-1.048422 0.6982777-1.8116483 0-0.472745-0.088661-0.8867857-0.2655111-1.242768-0.1768505-0.3588306-0.4250734-0.6380029-0.7446456-0.8373529-0.3164696-0.2021979-0.6840355-0.3031141-1.1028928-0.3031141z" fill="url(#linearGradient15)" stroke-width="1.59722" style="paint-order:stroke fill markers"/>
</svg>
