<svg width="48" height="48" version="1.1" viewBox="0 0 12.7 12.7" xmlns="http://www.w3.org/2000/svg">
    <path d="m7.7625673 1.5081253c-0.7217887 0-1.263088 0.1955192-1.6239826 0.5873737-0.3564936 0.3918549-0.5348024 0.9212717-0.5348024 1.5878289v3.7146594c-0.7437946-0.0686757-1.3004833-0.313124-1.6701809-0.7332573-0.3696961-0.420133-0.5543779-0.9956085-0.5543779-1.7268024 0-0.6059609 0.1186107-1.1074756 0.3562741-1.5033699 0.2420636-0.3999349 0.5679015-0.6583345 0.9772081-0.7754869l-0.4228305-1.0849141c-0.4973309 0.1292726-0.9218802 0.3681802-1.2739728 0.7155981-0.3476913 0.3433778-0.6138322 0.7554428-0.79868 1.2361724-0.184849 0.4766891-0.2771891 0.9816409-0.2771891 1.514887 0 0.6665571 0.144883 1.2538823 0.4353589 1.7628891 0.2948773 0.5049676 0.7157015 0.9093898 1.2614446 1.2123702 0.5457432 0.3029811 1.2011451 0.4782401 1.9669455 0.526717v2.4001705a0.71298846 0.69916064 0 0 0 0.7133309 0.698705 0.71298846 0.69916064 0 0 0 0.7125477-0.698705v-7.2657757c0-0.3070208 0.064205-0.5556749 0.19184-0.745542 0.1320357-0.1898677 0.3501417-0.2848574 0.6538216-0.2848574 0.4621208 0 0.8179566 0.2060329 1.0688218 0.6180862 0.2508661 0.4080142 0.3766324 0.9374309 0.3766324 1.587829 0 1.3973014-0.6315173 2.2216625-1.8902094 2.4769515v1.1647662c0.9803653-0.1344371 1.7599046-0.4793765 2.3388794-1.0357744 0.6601733-0.6301993 0.9905203-1.4872058 0.9905203-2.5698564 0-0.6705975-0.125767-1.2579218-0.376633-1.7628892-0.250865-0.5090078-0.6029741-0.9050189-1.056293-1.1878005-0.448918-0.2868215-0.9703169-0.429973-1.5644737-0.429973z" stroke-width="2.26569" style="paint-order:stroke fill markers"/>
</svg>
