<svg width="160" height="48" version="1.1" viewBox="0 0 42.333333 12.7" xmlns="http://www.w3.org/2000/svg">
    <defs>
        <linearGradient id="linearGradient19" x1="1.0583333" x2="12.940529" y1="6.9556632" y2="6.9556632" gradientTransform="matrix(.78923734 .42453985 0 .91594863 .11568446 -.02098513)" gradientUnits="userSpaceOnUse">
            <stop stop-color="#0a6ec2" offset=".09860856"/>
            <stop stop-color="#459eed" offset="1"/>
        </linearGradient>
    </defs>
    <path d="m14.418534 9.4207983v-4.8211962c0-0.4169683 0.115824-0.7441727 0.347473-0.981613 0.237441-0.2432315 0.599392-0.3648472 1.085855-0.3648472h0.903432v0.8599971h-0.694948c-0.179528 0-0.312726 0.04633-0.399594 0.1389895-0.08108 0.09266-0.121616 0.2287534-0.121616 0.4082815v4.7603883zm-0.6602-3.6571597v-0.8599971h2.936152v0.8599971zm3.132694 3.6571597v-4.6387726h1.111916v4.6387726zm-0.017373-5.2555382v-0.9902998h1.15535v0.9902998zm2.672291 5.2555382c-0.335891 0-0.605183-0.086868-0.807876-0.2606052-0.202693-0.1737368-0.304039-0.4517157-0.304039-0.8339366v-5.0731146h1.111915v4.9601856c0 0.1158245 0.02896 0.2026929 0.08687 0.2606052 0.06371 0.057912 0.150575 0.086868 0.260605 0.086868h0.338787v0.8599972zm2.773065 0.1042421c-0.457507 0-0.857102-0.098451-1.198784-0.2953526-0.341683-0.2026929-0.608079-0.486463-0.79919-0.8513103-0.19111-0.3648473-0.286665-0.7905024-0.286665-1.2769655 0-0.4922543 0.09555-0.9179094 0.286665-1.2769655 0.191111-0.3648473 0.457507-0.6457218 0.79919-0.8426235 0.341682-0.2026929 0.741277-0.3040394 1.198784-0.3040394s0.857101 0.1013465 1.198784 0.3040394c0.341682 0.1969017 0.605183 0.4777762 0.790502 0.8426235 0.191111 0.3590561 0.286666 0.7847112 0.286666 1.2769655 0 0.4864631-0.09556 0.9121182-0.286666 1.2769655-0.185319 0.3648473-0.44882 0.6486174-0.790502 0.8513103-0.341683 0.1969017-0.741277 0.2953526-1.198784 0.2953526zm0-0.9034314c0.359056 0 0.637035-0.1331982 0.833936-0.3995946 0.196902-0.2663965 0.295353-0.6399306 0.295353-1.1206024 0-0.4748806-0.09845-0.8455191-0.295353-1.1119155-0.196901-0.2721877-0.47488-0.4082815-0.833936-0.4082815s-0.637035 0.1360938-0.833937 0.4082815c-0.196902 0.2663964-0.295353 0.6370349-0.295353 1.1119155 0 0.4806718 0.09845 0.8542059 0.295353 1.1206024 0.196902 0.2663964 0.474881 0.3995946 0.833937 0.3995946zm4.06914 0.7991893c-0.463298 0-0.80498-0.1071377-1.025047-0.3214131-0.214275-0.2142754-0.321413-0.5501665-0.321413-1.0076734v-4.3955411h1.111915v4.291299c0 0.2142754 0.04633 0.3648473 0.13899 0.4517157 0.09266 0.081077 0.23744 0.1216157 0.434342 0.1216157h0.651513v0.8599972zm-2.076155-3.7787754v-0.8599972h3.066455v0.8599972zm3.204672 3.7787732v-4.6387726h1.111915v4.6387726zm-0.017374-5.2555382v-0.9902998h1.15535v0.9902998zm1.389391 5.2555404v-4.6387726h1.007674l0.03475 1.1379761-0.104242-0.052121c0.05212-0.2490227 0.141884-0.4604025 0.269292-0.6341393 0.133198-0.179528 0.292457-0.3156218 0.477776-0.4082815 0.191111-0.098451 0.399595-0.1476763 0.625453-0.1476763 0.393803 0 0.712321 0.1129289 0.955552 0.3387868 0.243231 0.2200666 0.396699 0.524106 0.460402 0.9121182h-0.147676c0.05212-0.2721877 0.141884-0.4980455 0.269292-0.6775735 0.127407-0.1853193 0.286666-0.3272043 0.477776-0.4256552 0.196902-0.098451 0.416969-0.1476763 0.6602-0.1476763 0.318517 0 0.593601 0.069495 0.82525 0.2084842 0.231649 0.1331982 0.408282 0.3300999 0.529897 0.5907051 0.127407 0.2606052 0.191111 0.5820183 0.191111 0.9642393v2.979586h-1.111919v-2.6929204c0-0.382221-0.0666-0.6688867-0.199797-0.8599972-0.127407-0.1911105-0.324309-0.2866657-0.590705-0.2866657-0.179528 0-0.332996 0.04633-0.460403 0.1389894-0.127407 0.09266-0.225857 0.2287535-0.295352 0.4082815-0.06371 0.1737368-0.09556 0.3851166-0.09556 0.6341393v2.6581731h-1.033729v-2.6581731c0-0.3822209-0.05791-0.6746779-0.173737-0.8773708-0.115825-0.2026929-0.315622-0.3040394-0.599392-0.3040394-0.179528 0-0.332996 0.04633-0.460403 0.1389894-0.121615 0.09266-0.220066 0.2287535-0.295352 0.4082815-0.06949 0.1737368-0.104242 0.3851166-0.104242 0.6341393v2.6581731zm8.871238 0.1042421c-0.457507 0-0.857102-0.098451-1.198784-0.2953526-0.341683-0.2026929-0.608079-0.486463-0.799189-0.8513103-0.191111-0.3648473-0.286666-0.7905024-0.286666-1.2769655 0-0.4922543 0.09555-0.9179094 0.286666-1.2769655 0.19111-0.3648473 0.457506-0.6457218 0.799189-0.8426235 0.341682-0.2026929 0.741277-0.3040394 1.198784-0.3040394s0.857101 0.1013465 1.198784 0.3040394c0.341682 0.1969017 0.605183 0.4777762 0.790502 0.8426235 0.191111 0.3590561 0.286666 0.7847112 0.286666 1.2769655 0 0.4864631-0.09555 0.9121182-0.286666 1.2769655-0.185319 0.3648473-0.44882 0.6486174-0.790502 0.8513103-0.341683 0.1969017-0.741277 0.2953526-1.198784 0.2953526zm0-0.9034314c0.359056 0 0.637035-0.1331982 0.833936-0.3995946 0.196902-0.2663965 0.295353-0.6399306 0.295353-1.1206024 0-0.4748806-0.09845-0.8455191-0.295353-1.1119155-0.196901-0.2721877-0.47488-0.4082815-0.833936-0.4082815s-0.637035 0.1360938-0.833937 0.4082815c-0.196901 0.2663964-0.295352 0.6370349-0.295352 1.1119155 0 0.4806718 0.09845 0.8542059 0.295352 1.1206024 0.196902 0.2663964 0.474881 0.3995946 0.833937 0.3995946z" fill="#171a1c" stroke-width=".407198" style="font-variant-ligatures:no-common-ligatures;font-variation-settings:'wght' 600"/>
    <path d="m1.0929534 1.0588952c-0.02139 0.00519-0.03462 0.046072-0.03462 0.1214396v8.1628093c0 0.150736 0.05279 0.3803915 0.118339 0.515214l0.821655 1.6898189c0.06555 0.134828 0.118339 0.122314 0.118339-0.02842v-8.1628109c0-0.150736-0.05279-0.3803919-0.118339-0.515214l-0.821656-1.6898193c-0.03278-0.067411-0.06233-0.09821-0.08371-0.093018zm1.631941 0.2643448c-0.04767-0.00441-0.07906 0.043692-0.07906 0.1377428v7.7141091c0 0.1504812 0.08001 0.3608382 0.179318 0.4715239l1.4934484 1.6647782c0.099304 0.11069 0.1793173 0.07826 0.1793173-0.07223v-7.7141037c0-0.1504812-0.080013-0.3608381-0.1793173-0.4715238l-1.4934534-1.6647784c-0.03724-0.041507-0.07165-0.062871-0.100253-0.065518zm2.3967532 0.7941317c-0.057097 0.00647-0.094568 0.06084-0.094568 0.1542891v2.5091202c0 0.1495181 0.09602 0.3401346 0.214974 0.4274988l2.2158854 1.6279807c0.1189544 0.087364 0.214974 0.037261 0.214974-0.1122568v-2.5091202c0-0.1495181-0.09602-0.3401346-0.214974-0.4274988l-2.2158853-1.6279807c-0.044608-0.032762-0.086148-0.045915-0.1204061-0.0420323zm0 3.7041667c-0.057097 0.00647-0.094568 0.06084-0.094568 0.1542892v2.50912c0 0.149518 0.09602 0.3401346 0.214974 0.4274988l2.2158854 1.6279796c0.1189544 0.08737 0.214974 0.03726 0.214974-0.112256v-2.5091199c0-0.1495179-0.09602-0.3401345-0.214974-0.4274987l-2.2158853-1.6279807c-0.044608-0.032762-0.086148-0.045915-0.1204061-0.0420323zm3.2235758-3.1754772c-0.0842-0.00411-0.143144 0.061203-0.143144 0.1744518v2.0359622c0 0.1509979 0.104728 0.3286122 0.234611 0.3985994l2.9703616 1.6006088c0.129884 0.069986 0.234611 0.00502 0.234611-0.1459804v-2.0359622c0-0.1509978-0.104727-0.3291297-0.234611-0.3991169l-2.9703616-1.600609c-0.03247-0.017496-0.0634-0.026585-0.09147-0.027954zm0 3.3026795c-0.0842-0.00411-0.143144 0.061204-0.143144 0.1744519v2.0359622c0 0.1509976 0.104727 0.3286081 0.234611 0.3985993l2.9703616 1.6006089c0.129884 0.06999 0.234611 5e-3 0.234611-0.145981v-2.0359616c0-0.1509975-0.104727-0.3291258-0.234611-0.399117l-2.9703616-1.6006089c-0.03247-0.017496-0.0634-0.026585-0.09147-0.027954z" fill="url(#linearGradient19)" stroke-opacity=".599653" stroke-width=".0536618"/>
</svg>
