<svg width="140" height="48" version="1.1" viewBox="0 0 37.041666 12.7" xmlns="http://www.w3.org/2000/svg">
    <defs>
        <linearGradient id="linearGradient19-3" x1="1.3443205" x2="14.30681" y1="10.162825" y2="-2.8636074" gradientTransform="matrix(.78923734 .42453985 0 .91594863 .11568424 -.02098363)" gradientUnits="userSpaceOnUse">
            <stop stop-color="#144f9f" offset="0"/>
            <stop stop-color="#1ec0f9" offset="1"/>
        </linearGradient>
    </defs>
    <path d="m1.0929533 1.0588964c-0.02139 0.0052-0.03462 0.04607-0.03462 0.12144v8.16281c0 0.150736 0.05279 0.380391 0.118339 0.5152143l0.821655 1.6898183c0.06555 0.134828 0.118339 0.122314 0.118339-0.02842v-8.1628116c0-0.150736-0.05279-0.380392-0.118339-0.515214l-0.821656-1.689819c-0.03278-0.06741-0.06233-0.09821-0.08371-0.09302zm1.6432351 0.264268c-0.05448-0.0044-0.090354 0.04369-0.090354 0.137743v7.714109c0 0.150481 0.09144 0.360838 0.2049345 0.471524l1.7067953 1.6647786c0.1134901 0.11069 0.2049337 0.07826 0.2049337-0.07223v-7.7141046c0-0.150481-0.091443-0.360838-0.2049337-0.471524l-1.7068011-1.664778c-0.04256-0.04151-0.081886-0.06287-0.1145747-0.06552zm5.8336382 0.529512c-0.06229 0.0061-0.103162 0.05746-0.103162 0.145717v2.869493c0 0.141211 0.104746 0.321238 0.234511 0.403748l2.7059774 1.537537c0.129765 0.08251 0.234511 0.03519 0.234511-0.10602v-2.869492c0-0.141212-0.104747-0.321239-0.234511-0.403749l-2.7059774-1.537537c-0.04866-0.03094-0.09398-0.04336-0.131349-0.0397zm0 3.998147c-0.06229 0.0061-0.103162 0.05746-0.103162 0.145718v2.869492c0 0.141212 0.104746 0.321238 0.234511 0.403749l2.7059774 1.5375366c0.129765 0.08252 0.234511 0.03519 0.234511-0.10602v-2.8694926c0-0.141211-0.104747-0.321238-0.234511-0.403749l-2.7059774-1.537537c-0.04866-0.03094-0.09398-0.04336-0.131349-0.0397zm-3.1921927-4.262695c-0.051905 0.0065-0.085969 0.06084-0.085969 0.154289v3.038287c0 0.149518 0.087289 0.340135 0.1954263 0.427499l2.2549804 1.627981c0.108138 0.08736 0.195427 0.03726 0.195427-0.112257v-3.038287c0-0.149518-0.08729-0.340135-0.195427-0.427499l-2.2549801-1.62798c-0.040552-0.03276-0.078315-0.04592-0.1094576-0.04203zm0 4.233334c-0.051905 0.0065-0.085969 0.06084-0.085969 0.154289v3.038287c0 0.149518 0.087289 0.340134 0.1954263 0.427499l2.2549804 1.6279796c0.108138 0.08737 0.195427 0.03726 0.195427-0.112256v-3.0382876c0-0.149518-0.08729-0.340134-0.195427-0.427498l-2.2549801-1.627981c-0.040552-0.03276-0.078315-0.04592-0.1094576-0.04203z" fill="url(#linearGradient19-3)"/>
    <path d="m14.386278 8.8899994v-3.9264192q0-0.144639 0.01058-0.3104447 0.01058-0.1658056 0.05997-0.3280835 0.04939-0.1658057 0.172862-0.2998613 0.151694-0.1658057 0.328083-0.2328335 0.176389-0.067028 0.34925-0.077611 0.176389-0.010583 0.317501-0.010583h0.479778v0.6279449h-0.444501q-0.257528 0-0.384528 0.127-0.123472 0.1270001-0.123472 0.352778v4.0781133zm-0.627945-3.1996965v-0.610306h2.345974v0.610306zm2.645834-1.2241397v-0.7302505h0.765529v0.7302505zm0 4.4238362v-3.8100025h0.765529v3.8100025zm1.058333 0v-5.1858367h0.765528v5.1858367zm2.852209 0.1058308q-0.571501 0-0.994834-0.2575279-0.419805-0.2575277-0.64911-0.7090833-0.229307-0.4550832-0.229307-1.0477499 0-0.5961946 0.232836-1.0477499 0.23636-0.4550834 0.656167-0.7055555 0.423333-0.2540002 0.984248-0.2540002 0.571502 0 0.991307 0.2575279 0.423334 0.2575276 0.652638 0.7090834 0.232834 0.4515554 0.232834 1.0406943 0 0.5961944-0.232834 1.0512778-0.232832 0.4515554-0.656164 0.7090831-0.419807 0.2540002-0.987781 0.2540002zm0-0.7196667q0.536223 0 0.800805-0.3598333 0.264584-0.3633613 0.264584-0.9348611 0-0.5856111-0.26811-0.934861-0.268113-0.3527779-0.797279-0.3527779-0.363363 0-0.599723 0.1658056-0.232831 0.1622777-0.349249 0.4515554-0.11289 0.2892778-0.11289 0.6702779 0 0.5891388 0.268112 0.9419167 0.271639 0.3527777 0.79375 0.3527777zm4.263321 0.6138359q-0.363361 0.0705556-0.716139 0.0599723-0.34925-0.0105834-0.624417-0.1340557-0.271639-0.1234723-0.416278-0.3915836-0.123472-0.239889-0.134056-0.4868336-0.007055-0.2469446-0.007055-0.5609171v-3.3549188h0.769056v3.3161133q0 0.2293057 0.0035 0.4021669 0.0071 0.1693334 0.07408 0.2822224 0.127 0.2151946 0.402167 0.2469446 0.278694 0.028222 0.649111-0.024695zm-2.617613-3.1996965v-0.610306h2.617613v0.610306zm2.883958-1.2241397v-0.7302505h0.765528v0.7302505zm0 4.4238362v-3.8100025h0.765528v3.8100025zm5.630336 0v-2.3600849q0-0.4056947-0.208139-0.6350004-0.204611-0.2293057-0.546806-0.2293057-0.208139 0-0.381 0.098778-0.172861 0.09525-0.278695 0.2857501-0.102305 0.1869724-0.102305 0.465667l-0.363362-0.1869724q-0.0035-0.402167 0.176389-0.705556 0.179917-0.3033891 0.486834-0.4691948 0.306917-0.1693334 0.687917-0.1693334 0.620889 0 0.956029 0.3739447 0.338666 0.3704169 0.338666 0.9842506v2.5470572zm-2.282474 0v-2.3459737q0-0.4092225-0.208139-0.642056-0.204611-0.2363613-0.550333-0.2363613-0.342195 0-0.553862 0.2363613-0.208139 0.2328335-0.208139 0.6138337l-0.359833-0.2328335q0-0.3704169 0.179916-0.6632226 0.179917-0.2963335 0.486834-0.465667 0.310445-0.1693334 0.698501-0.1693334 0.41275 0 0.6985 0.176389 0.28575 0.1728612 0.433917 0.4833058 0.148167 0.3069169 0.148167 0.705556l-0.0035 2.5400017zm-2.289529 0v-3.8100025h0.677334v1.1218341h0.09172v2.6881684zm7.376585 0.1058334q-0.5715 0-0.994834-0.257528-0.419805-0.2575279-0.649111-0.7090837-0.229307-0.4550837-0.229307-1.0477507 0-0.5961949 0.232834-1.0477507 0.236361-0.4550836 0.656167-0.705556 0.423333-0.2540002 0.984251-0.2540002 0.571501 0 0.991307 0.257528 0.423333 0.2575279 0.652639 0.7090838 0.232833 0.4515558 0.232833 1.0406951 0 0.5961948-0.232833 1.0512784-0.232834 0.4515559-0.656167 0.7090838-0.419806 0.2540002-0.987779 0.2540002zm0-0.7196671q0.536223 0 0.800806-0.3598336 0.264584-0.3633614 0.264584-0.9348617 0-0.5856115-0.268111-0.9348617-0.268112-0.352778-0.797279-0.352778-0.363361 0-0.599722 0.1658056-0.232834 0.1622779-0.34925 0.4515559-0.112889 0.2892779-0.112889 0.6702782 0 0.5891392 0.26811 0.9419173 0.27164 0.352778 0.793751 0.352778z" fill="#f7f8f8" stroke-opacity=".599653" stroke-width=".0429796" style="font-variant-ligatures:no-common-ligatures;font-variation-settings:'wght' 625"/>
</svg>
