<svg width="160" height="48" version="1.1" viewBox="0 0 42.333334 12.7" xmlns="http://www.w3.org/2000/svg" xmlns:xlink="http://www.w3.org/1999/xlink">
    <defs>
        <linearGradient id="linearGradient4" x1="1.0583333" x2="12.940529" y1="6.9556632" y2="6.9556632" gradientTransform="matrix(.78923734 .42453985 0 .91594863 .11568823 -.02103019)" gradientUnits="userSpaceOnUse">
            <stop stop-color="#0a66c2" offset=".24659947"/>
            <stop stop-color="#0a85c2" offset="1"/>
        </linearGradient>
    </defs>
    <path d="m8.4365284 1.8506319 2.9706906 1.5979688c0.129884 0.069866 0.234447 0.2474624 0.234447 0.3981987v6.8565926c0 0.150736-0.104563 0.215841-0.234447 0.145976l-2.9706906-1.5979692c-0.1298836-0.0698659-0.2344469-0.2474625-0.2344469-0.3981988v-6.8565927c0-0.1507363 0.1045633-0.2158413 0.2344469-0.1459754zm-3.1947263-0.239217 2.2163957 1.6410634c0.118954 0.088076 0.2147185 0.2803326 0.2147185 0.4310688v7.2919329c0 0.150736-0.095764 0.201181-0.2147185 0.113105l-2.2163957-1.6410633c-0.1189541-0.0880759-0.2147185-0.2803327-0.2147185-0.4310689v-7.2919326c0-0.1507363 0.095764-0.2011812 0.2147185-0.1131053zm-2.4167198-0.2309363 1.4935851 1.6675967c0.099304 0.1108733 0.1792488 0.3214832 0.1792488 0.4722194v7.7272713c0 0.150736-0.079945 0.182828-0.1792488 0.07195l-1.4935851-1.6675921c-0.0993038-0.1108733-0.1792488-0.3214831-0.1792488-0.4722193v-7.7272712c0-0.1507362 0.079945-0.1828282 0.1792488-0.071955zm-1.6484238-0.2288572 0.8216828 1.6899726c0.065552 0.1348222 0.1183253 0.3647129 0.1183253 0.5154491v8.1626099c0 0.150736-0.052773 0.163548-0.1183253 0.02872l-0.8216828-1.6899674c-0.0655522-0.1348226-0.1183252-0.364713-0.1183252-0.5154492v-8.1626101c0-0.1507362 0.052773-0.1635473 0.1183252-0.028725z" fill="url(#linearGradient4)" stroke-opacity=".599653" stroke-width=".0536618"/>
    <path d="m14.418534 9.4207983v-4.8211962q0-0.6254525 0.347473-0.981613 0.356161-0.3648472 1.085855-0.3648472h0.903432v0.8599971h-0.694948q-0.269292 0-0.399594 0.1389895-0.121616 0.1389894-0.121616 0.4082815v4.7603883zm-0.6602-3.6571597v-0.8599971h2.936152v0.8599971zm3.132694 3.6571597v-4.6387726h1.111916v4.6387726zm-0.017373-5.2555382v-0.9902998h1.15535v0.9902998zm2.672291 5.2555382q-0.503836 0-0.807876-0.2606052-0.304039-0.2606052-0.304039-0.8339366v-5.0731146h1.111915v4.9601856q0 0.1737368 0.08687 0.2606052 0.09556 0.086868 0.260605 0.086868h0.338787v0.8599972zm2.773065 0.1042421q-0.686261 0-1.198784-0.2953526-0.512524-0.3040394-0.79919-0.8513103-0.286665-0.5472709-0.286665-1.2769655 0-0.7383814 0.286665-1.2769655 0.286666-0.5472709 0.79919-0.8426235 0.512523-0.3040394 1.198784-0.3040394 0.68626 0 1.198784 0.3040394 0.512523 0.2953526 0.790502 0.8426235 0.286666 0.5385841 0.286666 1.2769655 0 0.7296946-0.286666 1.2769655-0.277979 0.5472709-0.790502 0.8513103-0.512524 0.2953526-1.198784 0.2953526zm0-0.9034314q0.538584 0 0.833936-0.3995946 0.295353-0.3995947 0.295353-1.1206024 0-0.7123209-0.295353-1.1119155-0.295352-0.4082815-0.833936-0.4082815t-0.833937 0.4082815q-0.295353 0.3995946-0.295353 1.1119155 0 0.7210077 0.295353 1.1206024 0.295353 0.3995946 0.833937 0.3995946zm4.06914 0.7991893q-0.694947 0-1.025047-0.3214131-0.321413-0.3214131-0.321413-1.0076734v-4.3955411h1.111915v4.291299q0 0.3214131 0.13899 0.4517157 0.138989 0.1216157 0.434342 0.1216157h0.651513v0.8599972zm-2.076155-3.7787754v-0.8599972h3.066455v0.8599972zm3.150083 3.7787754v-4.6387726h1.111915v4.6387726zm-0.017374-5.2555382v-0.9902998h1.15535v0.9902998zm1.44398 5.2555382v-4.6387726h1.007674l0.03475 1.1379761-0.104242-0.052121q0.07818-0.3735341 0.269292-0.6341393 0.199797-0.269292 0.477776-0.4082815 0.286666-0.1476763 0.625453-0.1476763 0.590705 0 0.955552 0.3387868 0.364847 0.3300999 0.460402 0.9121182h-0.147676q0.07818-0.4082815 0.269292-0.6775735 0.191111-0.2779789 0.477776-0.4256552 0.295353-0.1476763 0.6602-0.1476763 0.477776 0 0.82525 0.2084842 0.347474 0.1997973 0.529897 0.5907051 0.191111 0.3909078 0.191111 0.9642393v2.979586h-1.111919v-2.6929204q0-0.5733315-0.199797-0.8599972-0.191111-0.2866657-0.590705-0.2866657-0.269292 0-0.460403 0.1389894-0.19111 0.1389895-0.295352 0.4082815-0.09556 0.2606052-0.09556 0.6341393v2.6581731h-1.033729v-2.6581731q0-0.5733314-0.173737-0.8773708t-0.599392-0.3040394q-0.269292 0-0.460403 0.1389894-0.182423 0.1389895-0.295352 0.4082815-0.104242 0.2606052-0.104242 0.6341393v2.6581731zm8.871238 0.1042421q-0.686261 0-1.198784-0.2953526-0.512524-0.3040394-0.799189-0.8513103-0.286666-0.5472709-0.286666-1.2769655 0-0.7383814 0.286666-1.2769655 0.286665-0.5472709 0.799189-0.8426235 0.512523-0.3040394 1.198784-0.3040394 0.68626 0 1.198784 0.3040394 0.512523 0.2953526 0.790502 0.8426235 0.286666 0.5385841 0.286666 1.2769655 0 0.7296946-0.286666 1.2769655-0.277979 0.5472709-0.790502 0.8513103-0.512524 0.2953526-1.198784 0.2953526zm0-0.9034314q0.538584 0 0.833936-0.3995946 0.295353-0.3995947 0.295353-1.1206024 0-0.7123209-0.295353-1.1119155-0.295352-0.4082815-0.833936-0.4082815t-0.833937 0.4082815q-0.295352 0.3995946-0.295352 1.1119155 0 0.7210077 0.295352 1.1206024 0.295353 0.3995946 0.833937 0.3995946z" fill="#0b0d0e" stroke-width=".407198" style="font-variant-ligatures:no-common-ligatures;font-variation-settings:'wght' 600"/>
</svg>
