<?xml version="1.0" encoding="UTF-8" standalone="no"?>
<svg
   width="48"
   height="48"
   version="1.1"
   viewBox="0 0 12.7 12.7"
   id="svg8"
   sodipodi:docname="icon-darkbackground.svg"
   xmlns:inkscape="http://www.inkscape.org/namespaces/inkscape"
   xmlns:sodipodi="http://sodipodi.sourceforge.net/DTD/sodipodi-0.dtd"
   xmlns="http://www.w3.org/2000/svg"
   xmlns:svg="http://www.w3.org/2000/svg">
  <defs
     id="defs8" />
  <sodipodi:namedview
     id="namedview8"
     pagecolor="#ffffff"
     bordercolor="#000000"
     borderopacity="0.25"
     inkscape:showpageshadow="2"
     inkscape:pageopacity="0.0"
     inkscape:pagecheckerboard="0"
     inkscape:deskcolor="#d1d1d1" />
  <g
     fill="#fff"
     id="g8">
    <path
       transform="matrix(1.2499997,0,0,1.2499997,-1.5874976,-1.5874982)"
       d="m5.7149995 8.4666672a2.1166646 2.1166646 0 0 1-2.1166644 2.1166668h2.1166644z"
       style="paint-order:stroke fill markers"
       id="path1" />
    <path
       transform="matrix(1.2499997,0,0,1.2499997,-1.5874976,-1.5874982)"
       d="m9.1016668 10.583334a2.1166616 2.1166616 0 0 1-2.116667-2.1166622v2.1166622z"
       style="paint-order:stroke fill markers"
       id="path2" />
    <path
       transform="matrix(1.2499997,0,0,1.2499997,-1.5874976,-1.5874982)"
       d="m3.5983325 2.1166674a2.1166618 2.1166618 0 0 1 2.1166672 2.1166616v-2.1166616z"
       style="paint-order:stroke fill markers"
       id="path3" />
    <path
       transform="matrix(1.2499997,0,0,1.2499997,-1.5874976,-1.5874982)"
       d="m6.9849998 4.2333331a2.1166617 2.1166617 0 0 1 2.1166615-2.1166671h-2.1166615z"
       style="paint-order:stroke fill markers"
       id="path4" />
    <path
       transform="matrix(-1.2499997,0,0,-1.2499997,-1.5874976,-1.5874982)"
       d="m-8.4666672-4.2333333a2.1166666 2.1166666 0 0 1-1.8330868-1.0583333 2.1166666 2.1166666 0 0 1 0-2.1166666 2.1166666 2.1166666 0 0 1 1.8330868-1.0583333v2.1166666z"
       style="paint-order:stroke fill markers"
       id="path5" />
    <path
       transform="matrix(1.2499997,0,0,1.2499997,-1.5874976,-1.5874982)"
       d="m4.2333322 8.4666672a2.1166658 2.1166658 0 0 1-1.8330864-1.0583329 2.1166658 2.1166658 0 0 1 0-2.1166659 2.1166658 2.1166658 0 0 1 1.8330864-1.0583329v2.1166658z"
       style="paint-order:stroke fill markers"
       id="path6" />
    <path
       transform="matrix(1.2499997,0,0,1.2499997,-1.5874976,-1.5874982)"
       d="m6.3499985 8.4666638a2.1166658 2.1166658 0 0 1-1.8330864-1.0583329 2.1166658 2.1166658 0 0 1 0-2.1166658 2.1166658 2.1166658 0 0 1 1.8330864-1.0583329v2.1166658z"
       style="paint-order:stroke fill markers"
       id="path7" />
    <path
       transform="matrix(-1.2499997,0,0,-1.2499997,-1.5874976,-1.5874982)"
       d="m-6.3499999-4.2333338a2.1166666 2.1166666 0 0 1-1.833087-1.0583333 2.1166666 2.1166666 0 0 1 0-2.1166666 2.1166666 2.1166666 0 0 1 1.833087-1.0583332v2.1166665z"
       style="paint-order:stroke fill markers"
       id="path8" />
    <rect
       transform="matrix(1.2499997,0,0,1.2499997,-1.5874976,-1.5874982)"
       x="5.7149997"
       y="2.1166661"
       width="1.2700001"
       height="8.4666634"
       style="paint-order:stroke fill markers"
       id="rect8" />
  </g>
</svg>
