<?xml version="1.0" encoding="UTF-8" standalone="no"?>
<svg
   width="188"
   height="48"
   version="1.1"
   viewBox="0 0 49.741667 12.7"
   xml:space="preserve"
   id="svg20"
   sodipodi:docname="banner-lightbackground.svg"
   xmlns:inkscape="http://www.inkscape.org/namespaces/inkscape"
   xmlns:sodipodi="http://sodipodi.sourceforge.net/DTD/sodipodi-0.dtd"
   xmlns="http://www.w3.org/2000/svg"
   xmlns:svg="http://www.w3.org/2000/svg"><defs
     id="defs20" /><sodipodi:namedview
     id="namedview20"
     pagecolor="#ffffff"
     bordercolor="#000000"
     borderopacity="0.25"
     inkscape:showpageshadow="2"
     inkscape:pageopacity="0.0"
     inkscape:pagecheckerboard="0"
     inkscape:deskcolor="#d1d1d1" /><g
     id="g20"><g
       transform="matrix(.31186745 0 0 .30453885 -2.9342905 -8.7551271)"
       stroke-width="5.70709"
       style="paint-order:stroke fill markers;white-space:pre"
       aria-label="filotimo linux"
       id="g11"><path
         d="m56.3472 43c0.528 0 0.936 0.048 1.296 0.144 0.096 0.024 0.168-0.048 0.168-0.168v-1.656c0-0.096-0.048-0.192-0.168-0.192-0.528-0.12-1.272-0.216-1.944-0.216-1.824 0-3.648 1.008-3.648 3.768v0.96h-1.728c-0.12 0-0.192 0.072-0.192 0.192v1.68c0 0.12 0.072 0.192 0.192 0.192h1.728v4.776l-0.096 5.328c0 0.144 0.072 0.192 0.192 0.192h2.616c0.12 0 0.192-0.048 0.192-0.192l-0.072-5.328v-4.776h2.736c0.12 0 0.192-0.072 0.192-0.192v-1.68c0-0.12-0.072-0.192-0.192-0.192h-2.736v-0.72c0-1.416 0.576-1.92 1.464-1.92z"
         id="path1" /><path
         d="m61.104994 41.584h-2.544c-0.12 0-0.192 0.072-0.192 0.192v2.376c0 0.12 0.072 0.192 0.192 0.192h2.544c0.12 0 0.192-0.072 0.192-0.192v-2.376c0-0.12-0.072-0.192-0.192-0.192zm0.12 10.128 0.072-5.88c0-0.144-0.072-0.192-0.192-0.192h-2.568c-0.12 0-0.192 0.048-0.192 0.192l0.048 5.88-0.048 6.096c0 0.144 0.072 0.192 0.192 0.192h2.568c0.12 0 0.192-0.048 0.192-0.192z"
         id="path2" /><path
         d="m64.651124 49.528 0.096-8.136c0-0.144-0.072-0.192-0.192-0.192h-2.496c-0.12 0-0.192 0.048-0.192 0.192l0.096 8.16-0.096 8.256c0 0.144 0.072 0.192 0.192 0.192h2.496c0.12 0 0.192-0.048 0.192-0.192z"
         id="path3" /><path
         d="m71.286137 58.288c3.888 0 6.072-2.592 6.072-6.48 0-3.912-2.184-6.456-6.072-6.456-3.912 0-6.12 2.592-6.12 6.504s2.208 6.432 6.12 6.432zm0-1.944c-2.112 0-3.168-1.512-3.168-4.488 0-2.952 1.008-4.536 3.144-4.56 2.088 0 3.12 1.608 3.12 4.56 0 2.976-1.008 4.488-3.096 4.488z"
         id="path4" /><path
         d="m81.329737 42.544h-2.52c-0.12 0-0.192 0.048-0.192 0.192l0.024 2.904h-1.416c-0.12 0-0.192 0.072-0.192 0.192v1.68c0 0.12 0.072 0.192 0.192 0.192h1.416l-0.024 6.792c0 2.76 1.752 3.72 3.696 3.72 0.672 0 1.416-0.168 1.992-0.336 0.12-0.024 0.168-0.12 0.168-0.216v-1.56c0-0.12-0.072-0.192-0.216-0.144-0.36 0.096-0.816 0.168-1.32 0.168-0.912 0-1.44-0.408-1.44-1.704l-0.024-6.72h2.832c0.12 0 0.192-0.072 0.192-0.192v-1.68c0-0.12-0.072-0.192-0.192-0.192h-2.832l0.048-2.904c0-0.144-0.072-0.192-0.192-0.192z"
         id="path5" /><path
         d="m87.7896 41.584h-2.544c-0.12 0-0.192 0.072-0.192 0.192v2.376c0 0.12 0.072 0.192 0.192 0.192h2.544c0.12 0 0.192-0.072 0.192-0.192v-2.376c0-0.12-0.072-0.192-0.192-0.192zm0.12 10.128 0.072-5.88c0-0.144-0.072-0.192-0.192-0.192h-2.568c-0.12 0-0.192 0.048-0.192 0.192l0.048 5.88-0.048 6.096c0 0.144 0.072 0.192 0.192 0.192h2.568c0.12 0 0.192-0.048 0.192-0.192z"
         id="path6" /><path
         d="m106.2572 53.344v-3.12c0-3.336-1.44-4.872-3.888-4.872-1.608 0-2.855996 0.696-3.815996 2.472-0.576-1.68-1.824-2.472-3.552-2.472s-2.88 0.888-3.696 2.16l0.072-1.68c0-0.144-0.072-0.192-0.192-0.192h-2.424c-0.12 0-0.192 0.048-0.192 0.192l0.024 7.512-0.072 4.464c0 0.144 0.072 0.192 0.192 0.192h2.592c0.12 0 0.192-0.048 0.192-0.192l-0.048-4.464v-2.064c0.24-2.424 1.392-3.792 2.616-3.792s1.992 0.84 1.992 2.784v3.072l-0.072 4.464c0 0.144 0.072 0.192 0.192 0.192h2.568c0.12 0 0.192-0.048 0.192-0.192l-0.048-4.464v-2.616c0.36-2.064 1.439996-3.24 2.543996-3.24 1.224 0 1.992 0.84 1.992 2.784v3.072l-0.048 4.464c0 0.144 0.072 0.192 0.192 0.192h2.544c0.12 0 0.192-0.048 0.192-0.192z"
         id="path7" /><path
         d="m112.88509 58.288c3.888 0 6.072-2.592 6.072-6.48 0-3.912-2.184-6.456-6.072-6.456-3.912 0-6.12 2.592-6.12 6.504s2.208 6.432 6.12 6.432zm0-1.944c-2.112 0-3.168-1.512-3.168-4.488 0-2.952 1.008-4.536 3.144-4.56 2.088 0 3.12 1.608 3.12 4.56 0 2.976-1.008 4.488-3.096 4.488zm12.35921-6.816 0.096-8.136c0-0.144-0.072-0.192-0.192-0.192h-2.496c-0.12 0-0.192 0.048-0.192 0.192l0.096 8.16-0.096 8.256c0 0.144 0.072 0.192 0.192 0.192h2.496c0.12 0 0.192-0.048 0.192-0.192zm3.51562-7.944h-2.544c-0.12 0-0.192 0.072-0.192 0.192v2.376c0 0.12 0.072 0.192 0.192 0.192h2.544c0.12 0 0.192-0.072 0.192-0.192v-2.376c0-0.12-0.072-0.192-0.192-0.192zm0.12 10.128 0.072-5.88c0-0.144-0.072-0.192-0.192-0.192h-2.568c-0.12 0-0.192 0.048-0.192 0.192l0.048 5.88-0.048 6.096c0 0.144 0.072 0.192 0.192 0.192h2.568c0.12 0 0.192-0.048 0.192-0.192z"
         id="path8" /><path
         d="m132.41952 52.72v-1.44c0.24-2.52 1.608-3.792 3.048-3.792 1.32 0 2.256 0.96 2.256 2.784v2.448l-0.048 5.088c0 0.144 0.072 0.192 0.192 0.192h2.544c0.12 0 0.192-0.048 0.192-0.192l-0.048-5.088v-2.496c0-3.144-1.656-4.872-4.224-4.872-1.848 0-3.264 0.984-4.056 2.16l0.072-1.68c0-0.144-0.072-0.192-0.192-0.192h-2.424c-0.12 0-0.192 0.048-0.192 0.192l0.024 6.408-0.072 5.568c0 0.144 0.072 0.192 0.192 0.192h2.592c0.12 0 0.192-0.048 0.192-0.192z"
         id="path9" /><path
         d="m145.33736 58.288c1.848 0 3.24-0.984 4.056-2.16l-0.072 1.68c0 0.144 0.072 0.192 0.192 0.192h2.424c0.12 0 0.192-0.048 0.192-0.192l-0.048-6.408 0.072-5.568c0-0.144-0.072-0.192-0.192-0.192h-2.568c-0.12 0-0.192 0.048-0.192 0.192l0.024 5.088v1.44c-0.24 2.52-1.584 3.792-3.048 3.792-1.32 0-2.232-0.96-2.232-2.784v-2.448l0.048-5.088c0-0.144-0.072-0.192-0.192-0.192h-2.544c-0.12 0-0.192 0.048-0.192 0.192l0.048 5.088v2.496c0 3.144 1.632 4.872 4.224 4.872z"
         id="path10" /><path
         d="m156.25279 53.272 2.64 4.584c0.048 0.072 0.12 0.144 0.216 0.144h2.856c0.144 0 0.192-0.12 0.12-0.24l-3.792-6.144 3.48-5.736c0.072-0.144 0.024-0.24-0.12-0.24h-2.52c-0.096 0-0.168 0.048-0.216 0.144l-2.328 4.224-2.472-4.248c-0.048-0.072-0.12-0.12-0.216-0.12h-2.856c-0.144 0-0.192 0.12-0.12 0.24l3.6 5.592-3.84 6.288c-0.072 0.144-0.024 0.24 0.12 0.24h2.592c0.096 0 0.168-0.072 0.216-0.144z"
         id="path11" /></g><g
       transform="matrix(1.2499997,0,0,1.2499997,-1.5874983,-1.5874989)"
       id="g19"><circle
         cx="6.3499994"
         cy="6.3499994"
         r="2.1166668"
         display="none"
         style="paint-order:stroke fill markers"
         id="circle11" /><rect
         x="5.7149997"
         y="2.1166689"
         width="1.2700003"
         height="8.4666615"
         display="none"
         style="paint-order:stroke fill markers"
         id="rect11" /><path
         d="m5.7149995 8.4666672a2.1166646 2.1166646 0 0 1-2.1166644 2.1166668h2.1166644z"
         style="paint-order:stroke fill markers"
         id="path12" /><path
         d="m9.1016668 10.583334a2.1166616 2.1166616 0 0 1-2.116667-2.1166622v2.1166622z"
         style="paint-order:stroke fill markers"
         id="path13" /><path
         d="m3.5983325 2.1166674a2.1166618 2.1166618 0 0 1 2.1166672 2.1166616v-2.1166616z"
         style="paint-order:stroke fill markers"
         id="path14" /><path
         d="m6.9849998 4.2333331a2.1166617 2.1166617 0 0 1 2.1166615-2.1166671h-2.1166615z"
         style="paint-order:stroke fill markers"
         id="path15" /><rect
         x="5.7149997"
         y="2.1166661"
         width="1.2700001"
         height="8.4666634"
         style="paint-order:stroke fill markers"
         id="rect15" /><path
         transform="scale(-1)"
         d="m-8.4666672-4.2333333a2.1166666 2.1166666 0 0 1-1.8330868-1.0583333 2.1166666 2.1166666 0 0 1 0-2.1166666 2.1166666 2.1166666 0 0 1 1.8330868-1.0583333v2.1166666z"
         style="paint-order:stroke fill markers"
         id="path16" /><path
         d="m4.2333322 8.4666672a2.1166658 2.1166658 0 0 1-1.8330864-1.0583329 2.1166658 2.1166658 0 0 1 0-2.1166659 2.1166658 2.1166658 0 0 1 1.8330864-1.0583329v2.1166658z"
         style="paint-order:stroke fill markers"
         id="path17" /><path
         d="m6.3499985 8.4666638a2.1166658 2.1166658 0 0 1-1.8330864-1.0583329 2.1166658 2.1166658 0 0 1 0-2.1166658 2.1166658 2.1166658 0 0 1 1.8330864-1.0583329v2.1166658z"
         style="paint-order:stroke fill markers"
         id="path18" /><path
         transform="scale(-1)"
         d="m-6.3499999-4.2333338a2.1166666 2.1166666 0 0 1-1.833087-1.0583333 2.1166666 2.1166666 0 0 1 0-2.1166666 2.1166666 2.1166666 0 0 1 1.833087-1.0583332v2.1166665z"
         style="paint-order:stroke fill markers"
         id="path19" /></g></g></svg>
