<?xml version="1.0" encoding="UTF-8" standalone="no"?>
<!-- Created with Inkscape (http://www.inkscape.org/) -->

<svg
   width="188"
   height="48"
   viewBox="0 0 49.741667 12.7"
   version="1.1"
   id="svg1"
   xml:space="preserve"
   inkscape:version="1.3.2 (091e20ef0f, 2023-11-25)"
   sodipodi:docname="banner-lightbackground-inkscape.svg"
   xmlns:inkscape="http://www.inkscape.org/namespaces/inkscape"
   xmlns:sodipodi="http://sodipodi.sourceforge.net/DTD/sodipodi-0.dtd"
   xmlns="http://www.w3.org/2000/svg"
   xmlns:svg="http://www.w3.org/2000/svg"><sodipodi:namedview
     id="namedview1"
     pagecolor="#ffffff"
     bordercolor="#000000"
     borderopacity="0.25"
     inkscape:showpageshadow="2"
     inkscape:pageopacity="0.0"
     inkscape:pagecheckerboard="0"
     inkscape:deskcolor="#d1d1d1"
     inkscape:document-units="px"
     showgrid="true"
     inkscape:zoom="4"
     inkscape:cx="106.375"
     inkscape:cy="-15.875"
     inkscape:window-width="1950"
     inkscape:window-height="934"
     inkscape:window-x="0"
     inkscape:window-y="0"
     inkscape:window-maximized="0"
     inkscape:current-layer="layer1"
     showguides="false"><inkscape:grid
       id="grid1"
       units="px"
       originx="0"
       originy="0"
       spacingx="0.26458333"
       spacingy="0.26458333"
       empcolor="#0099e5"
       empopacity="0.30196078"
       color="#0099e5"
       opacity="0.14901961"
       empspacing="4"
       dotted="false"
       gridanglex="30"
       gridanglez="30"
       visible="true" /></sodipodi:namedview><defs
     id="defs1"><inkscape:perspective
       sodipodi:type="inkscape:persp3d"
       inkscape:vp_x="0 : 6.35 : 1"
       inkscape:vp_y="0 : 1000 : 0"
       inkscape:vp_z="44.45 : 6.35 : 1"
       inkscape:persp3d-origin="22.225 : 4.2333333 : 1"
       id="perspective26" /><rect
       x="47.999996"
       y="39.999996"
       width="115.99999"
       height="31.999998"
       id="rect1" /><linearGradient
       id="linearGradient2"
       x1="1.0583333"
       x2="11.641666"
       y1="1.0583333"
       y2="11.641666"
       gradientTransform="matrix(1,0,0,0.97500005,0,0.02645828)"
       gradientUnits="userSpaceOnUse"><stop
         stop-color="#48b3ea"
         offset="0"
         id="stop1" /><stop
         stop-color="#147fb8"
         offset=".7473498"
         id="stop2" /></linearGradient><linearGradient
       id="linearGradient4"
       x1="1.0583333"
       x2="11.641666"
       y1="1.0583333"
       y2="11.641666"
       gradientUnits="userSpaceOnUse"><stop
         stop-color="#48b3ea"
         offset="0"
         id="stop3" /><stop
         stop-color="#1585c1"
         offset="1"
         id="stop4" /></linearGradient><linearGradient
       id="linearGradient15"
       x1="6.5952148"
       x2="6.3499999"
       y1="10.182805"
       y2="3.4395831"
       gradientTransform="matrix(1.0681818,0,0,1.0474316,-0.43295444,-0.60620275)"
       gradientUnits="userSpaceOnUse"><stop
         stop-color="#f2f2f2"
         offset="0"
         id="stop5" /><stop
         stop-color="#fff"
         offset=".7473498"
         id="stop6" /></linearGradient><rect
       x="47.999996"
       y="39.999996"
       width="115.99999"
       height="31.999998"
       id="rect45" /></defs><g
     inkscape:label="Layer 1"
     inkscape:groupmode="layer"
     id="layer1"><text
       xml:space="preserve"
       transform="matrix(0.32105667,0,0,0.30969639,-3.3803245,-8.9677223)"
       id="text1"
       style="font-style:normal;font-variant:normal;font-weight:500;font-stretch:normal;font-size:24px;line-height:1;font-family:'Forma DJR Display';-inkscape-font-specification:'Forma DJR Display Medium';text-align:center;letter-spacing:-0.852383px;word-spacing:0px;white-space:pre;shape-inside:url(#rect1);display:inline;fill:#000000;stroke-width:5.70709;paint-order:stroke fill markers;stroke:none"><tspan
         x="49.869624"
         y="58"
         id="tspan26"><tspan
           style="letter-spacing:-0.426191px"
           id="tspan3">f</tspan><tspan
           dx="0.51566613"
           style="letter-spacing:-0.941857px"
           id="tspan6">i</tspan><tspan
           dx="-0.25686985"
           style="letter-spacing:-0.684987px"
           id="tspan7">l</tspan><tspan
           dx="0.16739595"
           id="tspan8">o</tspan><tspan
           dx="-0.42426661"
           style="letter-spacing:-0.428117px"
           id="tspan9">t</tspan><tspan
           dx="0.42426717"
           id="tspan10">i</tspan><tspan
           dx="-0.42426565"
           style="letter-spacing:-0.428117px"
           id="tspan11">m</tspan><tspan
           dx="0.42426336"
           id="tspan12">o l</tspan><tspan
           dx="-0.091148853"
           style="letter-spacing:-0.76123px"
           id="tspan22">i</tspan><tspan
           dx="-0.11905545"
           style="letter-spacing:-0.642175px"
           id="tspan23">n</tspan><tspan
           dx="1.4983985"
           style="letter-spacing:-2.14058px"
           id="tspan24">u</tspan><tspan
           dx="-0.43580925"
           style="letter-spacing:-1.70477px"
           id="tspan25">x</tspan></tspan></text><g
       fill="#fff"
       id="g9"
       style="fill:#000000;stroke:none"
       transform="translate(0.01085169,-0.01085291)"><g
         id="g3"
         style="fill:#000000;stroke:none"><path
           d="m 6.35,3.7041666 a 2.6458316,2.6458316 0 0 0 -2.291333,1.3229167 2.6458316,2.6458316 0 0 0 0,2.6458334 A 2.6458316,2.6458316 0 0 0 6.35,8.9958334 2.6458326,2.6458326 0 0 0 8.6413331,7.6729167 a 2.6458326,2.6458326 0 0 0 0,-2.6458334 A 2.6458326,2.6458326 0 0 0 6.35,3.7041666 Z"
           id="path1"
           style="fill:#000000;stroke:none" /><path
           d="m 8.9958339,3.7041674 a 2.6458326,2.6458326 0 0 1 2.2913581,1.3229163 2.6458326,2.6458326 0 0 1 0,2.6458326 2.6458326,2.6458326 0 0 1 -2.2913581,1.3229163 V 6.35 Z"
           id="path2"
           style="fill:#000000;stroke:none" /><path
           d="m 3.7041664,8.9958317 a 2.6458316,2.6458316 0 0 1 -2.2913575,-1.3229158 2.6458316,2.6458316 0 0 1 0,-2.6458318 2.6458316,2.6458316 0 0 1 2.2913575,-1.3229158 v 2.6458316 z"
           id="path3"
           style="fill:#000000;stroke:none" /></g><g
         id="g7"
         style="fill:#000000;stroke:none"><path
           d="M 1.0475359,3.70417 A 2.6566303,2.6567354 0 0 1 3.7041662,1.0474346 V 3.70417 Z"
           id="path4"
           style="fill:#000000;stroke:none" /><path
           transform="rotate(-90)"
           d="M -11.652464,3.7041664 A 2.6566303,2.6567354 0 0 1 -8.9958334,1.047431 v 2.6567354 z"
           id="path5"
           style="fill:#000000;stroke:none" /><path
           transform="scale(-1)"
           d="m -11.652464,-8.9958324 a 2.6566303,2.6567354 0 0 1 2.6566306,-2.6567356 v 2.6567356 z"
           id="path6"
           style="fill:#000000;stroke:none" /><path
           transform="rotate(90)"
           d="m 1.0475368,-8.9958334 a 2.6566303,2.6567354 0 0 1 2.6566303,-2.6567356 v 2.6567356 z"
           id="path7"
           style="fill:#000000;stroke:none" /></g><path
         d="M 6.3391479,8.9958333 A 2.6566303,2.6567354 0 0 1 3.6824626,11.652519 H 8.9958333 A 2.6567354,2.6566303 0 0 1 6.3391479,8.9958333 Z"
         id="path8"
         style="fill:#000000;stroke:none" /><path
         d="M 6.3500001,3.7041666 A 2.6566303,2.6567354 0 0 1 9.0066854,1.0474809 H 3.6933147 a 2.6567354,2.6566303 0 0 1 2.6566854,2.6566857 z"
         id="path9"
         style="fill:#000000;stroke:none" /></g></g></svg>
