<svg width="188" height="48" version="1.1" viewBox="0 0 49.741667 12.7" xml:space="preserve" xmlns="http://www.w3.org/2000/svg"><g><g transform="matrix(.32105667 0 0 .30969639 -3.3803245 -8.9677223)" stroke-width="5.70709" style="paint-order:stroke fill markers;white-space:pre" aria-label="filotimo linux"><path d="m56.301624 43c0.528 0 0.936 0.048 1.296 0.144 0.096 0.024 0.168-0.048 0.168-0.168v-1.656c0-0.096-0.048-0.192-0.168-0.192-0.528-0.12-1.272-0.216-1.944-0.216-1.824 0-3.648 1.008-3.648 3.768v0.96h-1.728c-0.12 0-0.192 0.072-0.192 0.192v1.68c0 0.12 0.072 0.192 0.192 0.192h1.728v4.776l-0.096 5.328c0 0.144 0.072 0.192 0.192 0.192h2.616c0.12 0 0.192-0.048 0.192-0.192l-0.072-5.328v-4.776h2.736c0.12 0 0.192-0.072 0.192-0.192v-1.68c0-0.12-0.072-0.192-0.192-0.192h-2.736v-0.72c0-1.416 0.576-1.92 1.464-1.92z"/><path d="m61.059417 41.584h-2.544c-0.12 0-0.192 0.072-0.192 0.192v2.376c0 0.12 0.072 0.192 0.192 0.192h2.544c0.12 0 0.192-0.072 0.192-0.192v-2.376c0-0.12-0.072-0.192-0.192-0.192zm0.12 10.128 0.072-5.88c0-0.144-0.072-0.192-0.192-0.192h-2.568c-0.12 0-0.192 0.048-0.192 0.192l0.048 5.88-0.048 6.096c0 0.144 0.072 0.192 0.192 0.192h2.568c0.12 0 0.192-0.048 0.192-0.192z"/><path d="m64.605547 49.528 0.096-8.136c0-0.144-0.072-0.192-0.192-0.192h-2.496c-0.12 0-0.192 0.048-0.192 0.192l0.096 8.16-0.096 8.256c0 0.144 0.072 0.192 0.192 0.192h2.496c0.12 0 0.192-0.048 0.192-0.192z"/><path d="m71.240561 58.288c3.888 0 6.072-2.592 6.072-6.48 0-3.912-2.184-6.456-6.072-6.456-3.912 0-6.12 2.592-6.12 6.504s2.208 6.432 6.12 6.432zm0-1.944c-2.112 0-3.168-1.512-3.168-4.488 0-2.952 1.008-4.536 3.144-4.56 2.088 0 3.12 1.608 3.12 4.56 0 2.976-1.008 4.488-3.096 4.488z"/><path d="m81.28416 42.544h-2.52c-0.12 0-0.192 0.048-0.192 0.192l0.024 2.904h-1.416c-0.12 0-0.192 0.072-0.192 0.192v1.68c0 0.12 0.072 0.192 0.192 0.192h1.416l-0.024 6.792c0 2.76 1.752 3.72 3.696 3.72 0.672 0 1.416-0.168 1.992-0.336 0.12-0.024 0.168-0.12 0.168-0.216v-1.56c0-0.12-0.072-0.192-0.216-0.144-0.36 0.096-0.816 0.168-1.32 0.168-0.912 0-1.44-0.408-1.44-1.704l-0.024-6.72h2.832c0.12 0 0.192-0.072 0.192-0.192v-1.68c0-0.12-0.072-0.192-0.192-0.192h-2.832l0.048-2.904c0-0.144-0.072-0.192-0.192-0.192z"/><path d="m87.744023 41.584h-2.544c-0.12 0-0.192 0.072-0.192 0.192v2.376c0 0.12 0.072 0.192 0.192 0.192h2.544c0.12 0 0.192-0.072 0.192-0.192v-2.376c0-0.12-0.072-0.192-0.192-0.192zm0.12 10.128 0.072-5.88c0-0.144-0.072-0.192-0.192-0.192h-2.568c-0.12 0-0.192 0.048-0.192 0.192l0.048 5.88-0.048 6.096c0 0.144 0.072 0.192 0.192 0.192h2.568c0.12 0 0.192-0.048 0.192-0.192z"/><path d="m106.21163 53.344v-3.12c0-3.336-1.44-4.872-3.888-4.872-1.608 0-2.856002 0.696-3.816002 2.472-0.576-1.68-1.824-2.472-3.552-2.472s-2.88 0.888-3.696 2.16l0.072-1.68c0-0.144-0.072-0.192-0.192-0.192h-2.424c-0.12 0-0.192 0.048-0.192 0.192l0.024 7.512-0.072 4.464c0 0.144 0.072 0.192 0.192 0.192h2.592c0.12 0 0.192-0.048 0.192-0.192l-0.048-4.464v-2.064c0.24-2.424 1.392-3.792 2.616-3.792s1.992 0.84 1.992 2.784v3.072l-0.072 4.464c0 0.144 0.072 0.192 0.192 0.192h2.568c0.12 0 0.192-0.048 0.192-0.192l-0.048-4.464v-2.616c0.36-2.064 1.440002-3.24 2.544002-3.24 1.224 0 1.992 0.84 1.992 2.784v3.072l-0.048 4.464c0 0.144 0.072 0.192 0.192 0.192h2.544c0.12 0 0.192-0.048 0.192-0.192z"/><path d="m112.83952 58.288c3.888 0 6.072-2.592 6.072-6.48 0-3.912-2.184-6.456-6.072-6.456-3.912 0-6.12 2.592-6.12 6.504s2.208 6.432 6.12 6.432zm0-1.944c-2.112 0-3.168-1.512-3.168-4.488 0-2.952 1.008-4.536 3.144-4.56 2.088 0 3.12 1.608 3.12 4.56 0 2.976-1.008 4.488-3.096 4.488zm12.3592-6.816 0.096-8.136c0-0.144-0.072-0.192-0.192-0.192h-2.496c-0.12 0-0.192 0.048-0.192 0.192l0.096 8.16-0.096 8.256c0 0.144 0.072 0.192 0.192 0.192h2.496c0.12 0 0.192-0.048 0.192-0.192z"/><path d="m128.71434 41.584h-2.544c-0.12 0-0.192 0.072-0.192 0.192v2.376c0 0.12 0.072 0.192 0.192 0.192h2.544c0.12 0 0.192-0.072 0.192-0.192v-2.376c0-0.12-0.072-0.192-0.192-0.192zm0.12 10.128 0.072-5.88c0-0.144-0.072-0.192-0.192-0.192h-2.568c-0.12 0-0.192 0.048-0.192 0.192l0.048 5.88-0.048 6.096c0 0.144 0.072 0.192 0.192 0.192h2.568c0.12 0 0.192-0.048 0.192-0.192z"/><path d="m132.4651 52.72v-1.44c0.24-2.52 1.608-3.792 3.048-3.792 1.32 0 2.256 0.96 2.256 2.784v2.448l-0.048 5.088c0 0.144 0.072 0.192 0.192 0.192h2.544c0.12 0 0.192-0.048 0.192-0.192l-0.048-5.088v-2.496c0-3.144-1.656-4.872-4.224-4.872-1.848 0-3.264 0.984-4.056 2.16l0.072-1.68c0-0.144-0.072-0.192-0.192-0.192h-2.424c-0.12 0-0.192 0.048-0.192 0.192l0.024 6.408-0.072 5.568c0 0.144 0.072 0.192 0.192 0.192h2.592c0.12 0 0.192-0.048 0.192-0.192z"/><path d="m145.38293 58.288c1.848 0 3.24-0.984 4.056-2.16l-0.072 1.68c0 0.144 0.072 0.192 0.192 0.192h2.424c0.12 0 0.192-0.048 0.192-0.192l-0.048-6.408 0.072-5.568c0-0.144-0.072-0.192-0.192-0.192h-2.568c-0.12 0-0.192 0.048-0.192 0.192l0.024 5.088v1.44c-0.24 2.52-1.584 3.792-3.048 3.792-1.32 0-2.232-0.96-2.232-2.784v-2.448l0.048-5.088c0-0.144-0.072-0.192-0.192-0.192h-2.544c-0.12 0-0.192 0.048-0.192 0.192l0.048 5.088v2.496c0 3.144 1.632 4.872 4.224 4.872z"/><path d="m156.29836 53.272 2.64 4.584c0.048 0.072 0.12 0.144 0.216 0.144h2.856c0.144 0 0.192-0.12 0.12-0.24l-3.792-6.144 3.48-5.736c0.072-0.144 0.024-0.24-0.12-0.24h-2.52c-0.096 0-0.168 0.048-0.216 0.144l-2.328 4.224-2.472-4.248c-0.048-0.072-0.12-0.12-0.216-0.12h-2.856c-0.144 0-0.192 0.12-0.12 0.24l3.6 5.592-3.84 6.288c-0.072 0.144-0.024 0.24 0.12 0.24h2.592c0.096 0 0.168-0.072 0.216-0.144z"/></g><g transform="translate(.01085169 -.01085291)"><path d="m6.35 3.7041666a2.6458316 2.6458316 0 0 0-2.291333 1.3229167 2.6458316 2.6458316 0 0 0 0 2.6458334 2.6458316 2.6458316 0 0 0 2.291333 1.3229167 2.6458326 2.6458326 0 0 0 2.2913331-1.3229167 2.6458326 2.6458326 0 0 0 0-2.6458334 2.6458326 2.6458326 0 0 0-2.2913331-1.3229167z"/><path d="m8.9958339 3.7041674a2.6458326 2.6458326 0 0 1 2.2913581 1.3229163 2.6458326 2.6458326 0 0 1 0 2.6458326 2.6458326 2.6458326 0 0 1-2.2913581 1.3229163v-2.6458326z"/><path d="m3.7041664 8.9958317a2.6458316 2.6458316 0 0 1-2.2913575-1.3229158 2.6458316 2.6458316 0 0 1 0-2.6458318 2.6458316 2.6458316 0 0 1 2.2913575-1.3229158v2.6458316z"/><path d="m1.0475359 3.70417a2.6566303 2.6567354 0 0 1 2.6566303-2.6567354v2.6567354z"/><path transform="rotate(-90)" d="m-11.652464 3.7041664a2.6566303 2.6567354 0 0 1 2.6566306-2.6567354v2.6567354z"/><path transform="scale(-1)" d="m-11.652464-8.9958324a2.6566303 2.6567354 0 0 1 2.6566306-2.6567356v2.6567356z"/><path transform="rotate(90)" d="m1.0475368-8.9958334a2.6566303 2.6567354 0 0 1 2.6566303-2.6567356v2.6567356z"/><path d="m6.3391479 8.9958333a2.6566303 2.6567354 0 0 1-2.6566853 2.6566857h5.3133707a2.6567354 2.6566303 0 0 1-2.6566854-2.6566857z"/><path d="m6.3500001 3.7041666a2.6566303 2.6567354 0 0 1 2.6566853-2.6566857h-5.3133707a2.6567354 2.6566303 0 0 1 2.6566854 2.6566857z"/></g></g></svg>
