<svg width="196" height="48" version="1.1" viewBox="0 0 51.858333 12.7" xml:space="preserve" xmlns="http://www.w3.org/2000/svg"><g transform="matrix(.39943582 0 0 .37930758 -10.428483 -13.507156)" fill="#fff" stroke-width="5.70709" style="paint-order:stroke fill markers;white-space:pre" aria-label="filotimo"><path d="m68.413794 43.915713c0.689166 0 1.221703 0.06265 1.691588 0.187954 0.125303 0.03133 0.21928-0.06265 0.21928-0.21928v-2.161473c0-0.125303-0.06265-0.250606-0.21928-0.250606-0.689165-0.156629-1.660262-0.281931-2.537381-0.281931-2.380754 0-4.761507 1.315679-4.761507 4.918135v1.253028h-2.25545c-0.156629 0-0.250606 0.09398-0.250606 0.250605v2.192799c0 0.156629 0.09398 0.250606 0.250606 0.250606h2.25545v6.233814l-0.125303 6.954306c0 0.187954 0.09398 0.250606 0.250606 0.250606h3.414501c0.156629 0 0.250606-0.06265 0.250606-0.250606l-0.09398-6.954306v-6.233814h3.57113c0.156628 0 0.250605-0.09398 0.250605-0.250606v-2.192799c0-0.156628-0.09398-0.250605-0.250605-0.250605h-3.57113v-0.939771c0-1.848217 0.751817-2.506056 1.910867-2.506056z"/><path d="m74.753934 42.067496h-3.320525c-0.156628 0-0.250605 0.09398-0.250605 0.250606v3.101244c0 0.156629 0.09398 0.250606 0.250605 0.250606h3.320525c0.156628 0 0.250605-0.09398 0.250605-0.250606v-3.101244c0-0.156629-0.09398-0.250606-0.250605-0.250606zm0.156628 13.219446 0.09398-7.674797c0-0.187954-0.09398-0.250605-0.250605-0.250605h-3.35185c-0.156629 0-0.250606 0.06265-0.250606 0.250605l0.06265 7.674797-0.06265 7.956728c0 0.187954 0.09398 0.250606 0.250606 0.250606h3.35185c0.156628 0 0.250605-0.06265 0.250605-0.250606z"/><path d="m79.669966 52.436303 0.125303-10.619412c0-0.187955-0.09398-0.250606-0.250605-0.250606h-3.257873c-0.156629 0-0.250606 0.06265-0.250606 0.250606l0.125303 10.650738-0.125303 10.776041c0 0.187954 0.09398 0.250606 0.250606 0.250606h3.257873c0.156628 0 0.250605-0.06265 0.250605-0.250606z"/><path d="m88.539318 63.870184c5.074764 0 7.925403-3.383176 7.925403-8.457939 0-5.106089-2.850639-8.426614-7.925403-8.426614-5.106089 0-7.988053 3.383176-7.988053 8.489265s2.881964 8.395288 7.988053 8.395288zm0-2.537382c-2.756661 0-4.134992-1.973519-4.134992-5.857906 0-3.853061 1.315679-5.920557 4.103667-5.951883 2.725336 0 4.072341 2.098822 4.072341 5.951883 0 3.884387-1.31568 5.857906-4.041016 5.857906z"/><path d="m101.90878 43.320524h-3.289198c-0.156629 0-0.250606 0.06265-0.250606 0.250606l0.03133 3.79041h-1.848216c-0.156629 0-0.250606 0.09398-0.250606 0.250605v2.192799c0 0.156629 0.09398 0.250606 0.250606 0.250606h1.848216l-0.03133 8.865173c0 3.602456 2.286774 4.855484 4.824154 4.855484 0.87712 0 1.84822-0.21928 2.60004-0.43856 0.15663-0.03133 0.21928-0.156628 0.21928-0.281931v-2.036171c0-0.156628-0.094-0.250605-0.28193-0.187954-0.46989 0.125303-1.06508 0.21928-1.72292 0.21928-1.19037 0-1.87954-0.532537-1.87954-2.224125l-0.0313-8.771196h3.69644c0.15663 0 0.2506-0.09398 0.2506-0.250606v-2.192799c0-0.156628-0.094-0.250605-0.2506-0.250605h-3.69644l0.0627-3.79041c0-0.187954-0.094-0.250606-0.25061-0.250606z"/><path d="m110.47111 42.067496h-3.32052c-0.15663 0-0.25061 0.09398-0.25061 0.250606v3.101244c0 0.156629 0.094 0.250606 0.25061 0.250606h3.32052c0.15663 0 0.25061-0.09398 0.25061-0.250606v-3.101244c0-0.156629-0.094-0.250606-0.25061-0.250606zm0.15663 13.219446 0.094-7.674797c0-0.187954-0.094-0.250605-0.25061-0.250605h-3.35185c-0.15662 0-0.2506 0.06265-0.2506 0.250605l0.0626 7.674797-0.0626 7.956728c0 0.187954 0.094 0.250606 0.2506 0.250606h3.35185c0.15663 0 0.25061-0.06265 0.25061-0.250606z"/><path d="m134.8359 57.41709v-4.072341c0-4.354273-1.87954-6.359118-5.07476-6.359118-2.09882 0-3.72776 0.908446-4.98079 3.226547-0.75181-2.192799-2.38075-3.226547-4.6362-3.226547s-3.75908 1.159051-4.82416 2.819313l0.094-2.192799c0-0.187954-0.094-0.250605-0.25061-0.250605h-3.16389c-0.15663 0-0.25061 0.06265-0.25061 0.250605l0.0313 9.804945-0.094 5.82658c0 0.187954 0.094 0.250606 0.25061 0.250606h3.38317c0.15663 0 0.25061-0.06265 0.25061-0.250606l-0.0627-5.82658v-2.694011c0.31325-3.163895 1.81689-4.94946 3.4145-4.94946s2.60003 1.096399 2.60003 3.633781v4.00969l-0.094 5.82658c0 0.187954 0.094 0.250606 0.25061 0.250606h3.35185c0.15663 0 0.25061-0.06265 0.25061-0.250606l-0.0627-5.82658v-3.414502c0.46989-2.69401 1.87955-4.228969 3.32053-4.228969 1.59761 0 2.60003 1.096399 2.60003 3.633781v4.00969l-0.0626 5.82658c0 0.187954 0.094 0.250606 0.25061 0.250606h3.32052c0.15663 0 0.25061-0.06265 0.25061-0.250606z"/><path d="m143.61755 63.870184c5.07477 0 7.9254-3.383176 7.9254-8.457939 0-5.106089-2.85063-8.426614-7.9254-8.426614-5.10609 0-7.98805 3.383176-7.98805 8.489265s2.88196 8.395288 7.98805 8.395288zm0-2.537382c-2.75666 0-4.13499-1.973519-4.13499-5.857906 0-3.853061 1.31568-5.920557 4.10367-5.951883 2.72533 0 4.07234 2.098822 4.07234 5.951883 0 3.884387-1.31568 5.857906-4.04102 5.857906z"/></g><g transform="translate(.01085169 -.01085291)" fill="#fff"><path d="m6.35 3.7041666a2.6458316 2.6458316 0 0 0-2.291333 1.3229167 2.6458316 2.6458316 0 0 0 0 2.6458334 2.6458316 2.6458316 0 0 0 2.291333 1.3229167 2.6458326 2.6458326 0 0 0 2.2913331-1.3229167 2.6458326 2.6458326 0 0 0 0-2.6458334 2.6458326 2.6458326 0 0 0-2.2913331-1.3229167z"/><path d="m8.9958339 3.7041674a2.6458326 2.6458326 0 0 1 2.2913581 1.3229163 2.6458326 2.6458326 0 0 1 0 2.6458326 2.6458326 2.6458326 0 0 1-2.2913581 1.3229163v-2.6458326z"/><path d="m3.7041664 8.9958317a2.6458316 2.6458316 0 0 1-2.2913575-1.3229158 2.6458316 2.6458316 0 0 1 0-2.6458318 2.6458316 2.6458316 0 0 1 2.2913575-1.3229158v2.6458316z"/><path d="m1.0475359 3.70417a2.6566303 2.6567354 0 0 1 2.6566303-2.6567354v2.6567354z"/><path transform="rotate(-90)" d="m-11.652464 3.7041664a2.6566303 2.6567354 0 0 1 2.6566306-2.6567354v2.6567354z"/><path transform="scale(-1)" d="m-11.652464-8.9958324a2.6566303 2.6567354 0 0 1 2.6566306-2.6567356v2.6567356z"/><path transform="rotate(90)" d="m1.0475368-8.9958334a2.6566303 2.6567354 0 0 1 2.6566303-2.6567356v2.6567356z"/><path d="m6.3391479 8.9958333a2.6566303 2.6567354 0 0 1-2.6566853 2.6566857h5.3133707a2.6567354 2.6566303 0 0 1-2.6566854-2.6566857z"/><path d="m6.3500001 3.7041666a2.6566303 2.6567354 0 0 1 2.6566853-2.6566857h-5.3133707a2.6567354 2.6566303 0 0 1 2.6566854 2.6566857z"/></g></svg>
